<?xml version="1.0" standalone="no"?><!DOCTYPE svg PUBLIC "-//W3C//DTD SVG 1.1//EN" "http://www.w3.org/Graphics/SVG/1.1/DTD/svg11.dtd"><svg t="1547120673491" class="icon" style="" viewBox="0 0 1024 1024" version="1.1" xmlns="http://www.w3.org/2000/svg" p-id="18034" xmlns:xlink="http://www.w3.org/1999/xlink" width="200" height="200"><defs><style type="text/css"></style></defs><path d="M78.857427 88.310127C216.596765 48.410052 341.800448 36.129186 460.736303 45.352575l43.823836 42.957552L567.136502 45.352575c131.47151-12.280866 259.834586-3.057477 356.858522 39.900075v245.413486l-62.576363 70.57676 62.576363 61.353372v162.555859c-65.735755 177.94516-231.603882 312.932769-422.54332 398.847873-190.939438-101.253446-369.394178-208.621846-422.594277-395.739438V441.092013l62.62732-42.957552L78.857427 336.832048V88.310127z m75.774471 83.112416v469.679423c67.774073 107.674148 211.27166 218.558646 337.137796 291.428514 132.286838-69.710475 266.000498-148.899129 349.928241-281.950336l6.471659-479.157601c-232.368251-57.021946-490.215476-57.021946-693.537696 0z" p-id="18035"></path><path d="M205.589848 216.97895c173.460861-49.785917 393.395372-49.785917 591.621797 0l-5.503459 418.364767c-71.595919 116.184125-185.690769 185.334063-298.562627 246.228813-107.317442-63.646479-229.718437-160.466584-287.555711-254.484001V216.97895z m311.454989 371.483454L428.225131 365.3685h-47.390894l-85.864145 223.093904h47.390893l20.688928-50.601245H451.869619l17.784325 50.601245h47.390893zM434.136253 502.190595H374.923115l29.555611-83.316248 29.657527 83.316248z m236.85255 8.917641a67.977905 67.977905 0 0 1-17.784324 35.670565 37.912715 37.912715 0 0 1-29.555611 11.92416c-14.828763 0-29.657527-5.96208-38.52421-17.835282-8.917641-11.92416-14.777805-29.759443-14.777806-59.518886 0-26.752924 5.860164-44.588206 14.777806-56.512366 8.866683-11.873202 23.695447-17.835282 38.473252-17.835282 23.695447 0 44.435332 14.879721 47.390893 38.677083l44.384374-11.92416c-5.911122-14.879721-11.822244-29.759443-23.695446-41.632645a103.13889 103.13889 0 0 0-65.12426-23.797362 88.259169 88.259169 0 0 0-73.990943 29.759442c-20.739886 20.790843-29.606569 47.594725-29.606569 86.271809 0 35.670565 11.822244 62.474446 29.555611 83.26529 17.835282 20.841801 44.435332 29.759443 71.08634 29.759443 20.739886 0 41.428813-5.96208 59.213138-17.835283 17.784324-11.92416 26.651008-32.715004 32.613087-53.556805l-44.435332-14.879721z" p-id="18036"></path></svg>
