<?xml version="1.0" standalone="no"?><!DOCTYPE svg PUBLIC "-//W3C//DTD SVG 1.1//EN" "http://www.w3.org/Graphics/SVG/1.1/DTD/svg11.dtd"><svg t="1547120718586" class="icon" style="" viewBox="0 0 1024 1024" version="1.1" xmlns="http://www.w3.org/2000/svg" p-id="18149" xmlns:xlink="http://www.w3.org/1999/xlink" width="200" height="200"><defs><style type="text/css"></style></defs><path d="M86.016 85.3504v124.3136h238.3872V85.3504H86.016z m304.384 0v124.3136h238.4384V85.3504H390.4z m309.1968 0v124.3136h238.3872V85.3504h-238.3872zM86.016 271.872v62.1568h113.8176V271.872H86.016z m177.0496 0v62.1568H490.496V271.872H263.0656z m284.3648 0v62.1568h227.584V271.872h-227.584z m276.8384 0v62.1568h113.7152V271.872H824.32zM131.2768 394.24c-39.7312-0.3072-48.6912 42.24-45.2608 73.728 0.5632 87.2448-1.2288 174.592 0.9216 261.7856 5.4272 36.1472 44.032 39.8336 73.2672 37.5808h732.5184c39.7312 0.4096 48.6912-42.1376 45.2608-73.6256-0.5632-87.2448 1.2288-174.592-0.9216-261.7344-5.4272-36.1984-43.9808-40.0384-73.2672-37.7344H131.2768z m301.6192 93.7472c23.9616-7.424 68.5568 15.9744 35.584 26.4192-35.6352-17.5616-90.624-6.5024-98.304 38.0416-12.6976 41.3184 10.5472 97.4336 60.7232 90.7776 33.7408 8.4992 34.7136-15.36 32.0512-39.936 6.5536-21.7088-18.2784-11.9808-31.3344-14.0288-13.2608-2.048-6.1952-29.5424 11.1616-19.5072 13.6192 1.536 33.5872-3.2256 43.2128 2.4064v81.2544c-45.1072 13.2096-110.4896 17.2032-133.632-33.536-20.992-46.9504-5.7856-117.76 51.5072-128.6144 9.5232-2.304 19.3024-3.2768 29.0304-3.2768z m-267.3664 1.8432c14.6944-0.1536 31.4368-3.9936 36.0448 14.2336 27.136 41.7792 53.1456 85.6576 81.0496 126.1568-3.2768-46.7456-1.536-93.5936-1.9968-140.3904 18.8416-4.2496 26.4704 2.6624 22.016 21.7088v148.3264c-14.6944 0.1536-31.4368 3.9936-36.1472-14.2336-27.4944-41.728-53.7088-85.8112-82.0224-126.0544 3.2256 46.6944 1.5872 93.4912 1.9968 140.288-20.4288 5.376-24.064-5.9904-20.992-24.1152v-145.92z m364.4416 0h95.232c5.9392 20.48-7.0656 22.016-24.064 19.5584h-48.128v59.4944h67.1744c5.9904 20.48-7.168 21.8624-24.064 19.456-13.568 1.536-33.536-3.2256-43.1104 2.4064v69.12c-18.7392 3.84-27.8016-2.048-23.04-21.7088V489.8304z m107.2128 0c17.8176-3.3792 29.44 1.3312 29.696 20.9408 10.6496 41.9328 24.576 83.0976 31.4368 125.9008 6.7584-50.176 24.2688-97.9968 37.0176-146.8416 16.2816-1.9968 30.72-1.536 30.208 18.5344 11.4176 42.8544 25.5488 84.992 34.816 128.3072 7.168-49.7664 21.9648-97.9456 33.0752-146.8416 17.408-1.9968 31.6416-1.5872 20.0192 18.6368l-40.96 151.3984c-17.7664 3.2768-29.5424-1.28-30.0544-20.8896-11.6224-41.3696-24.064-82.4832-35.1232-124.0064-9.7792 49.1008-26.0096 96.5632-39.0144 144.896-17.7152 3.6864-28.3648-1.9456-28.928-20.8896l-42.1888-149.1456zM86.016 812.9536v124.3648h238.3872v-124.3648H86.016z m304.384 0v124.3648h238.4384v-124.3648H390.4z m309.1968 0v124.3648h238.3872v-124.3648h-238.3872z" p-id="18150"></path></svg>