<?xml version="1.0" encoding="UTF-8"?>
<svg width="20px" height="20px" viewBox="0 0 20 20" version="1.1" xmlns="http://www.w3.org/2000/svg" xmlns:xlink="http://www.w3.org/1999/xlink">
    <!-- Generator: Sketch 52.4 (67378) - http://www.bohemiancoding.com/sketch -->
    <title>数据备份</title>
    <desc>Created with Sketch.</desc>
    <g id="数据备份" stroke="none" stroke-width="1" fill-rule="evenodd">
        <g id="shujubeifen" transform="translate(1.000000, 1.000000)">
            <path d="M15.984062,15.1474102 C15.9810644,15.1471796 15.977894,15.1429715 15.9747235,15.144355 C15.9200184,15.1675859 15.8645063,15.1869546 15.8081872,15.2091479 C15.8073225,15.2094362 15.8068613,15.2078221 15.806112,15.207995 C15.7477176,15.2308224 15.6885739,15.2524393 15.6284502,15.2740562 C15.6269514,15.274575 15.6252797,15.2747479 15.6239539,15.2753244 C15.5663089,15.2960765 15.507684,15.3160217 15.4483673,15.3355633 C15.4416229,15.3379268 15.4349937,15.3399444 15.4283069,15.3421349 C15.3698549,15.361273 15.3109994,15.3796041 15.2513368,15.397647 C15.2453418,15.3996069 15.2391161,15.401221 15.2331787,15.4030079 C15.1080313,15.4402823 14.9819597,15.4743807 14.8550854,15.5052701 L14.8367543,15.5097664 C14.7748436,15.5248694 14.7124141,15.5390501 14.6492929,15.5528272 C14.640012,15.5549601 14.6306159,15.5568623 14.6212774,15.5589376 C14.5512218,15.5738981 14.4810061,15.5880988 14.4106427,15.6015372 C14.3426024,15.614529 14.2744032,15.6266738 14.2060607,15.6379688 C14.1398267,15.6489214 14.0729009,15.6590669 14.0056868,15.6687512 C13.9951955,15.6701347 13.9849923,15.6717488 13.9744433,15.6732475 C13.9094197,15.6822401 13.8437045,15.6908293 13.7777587,15.6985537 C13.7665179,15.6998795 13.7553924,15.7012053 13.7442093,15.7024159 C13.6764188,15.7102556 13.6084554,15.7175189 13.5399732,15.7238598 L13.5243514,15.7252433 C13.4574832,15.731296 13.389981,15.7367146 13.3221329,15.7415568 C13.313832,15.7424215 13.3055311,15.7428826 13.2971726,15.7435167 C13.2290939,15.748186 13.160554,15.7519329 13.0916683,15.7554493 L13.0526427,15.7571786 L13.0378279,15.7576974 C12.8995376,16.5930882 12.162028,17.3375153 11.0534001,17.869463 C11.5418835,17.9463614 12.0590741,17.9878657 12.5947111,17.9878657 C15.5728805,17.9878657 17.9870515,16.709704 17.9870515,15.1332295 L17.9870515,13.24259 L17.9537904,13.24259 C17.793595,14.0337095 17.0596593,14.6716663 15.984062,15.1474102 Z M17.9854374,8.43500011 C17.986648,8.410501 17.9871668,8.38600189 17.9871668,8.36127218 C17.9871668,6.86809471 15.8215032,5.64285102 13.0622694,5.51735793 L13.0622694,11.2055323 C13.3179248,11.1938304 13.5684498,11.1729053 13.8127491,11.1430452 C16.1606285,10.8560309 17.9221433,9.75714497 17.9854374,8.43500011 Z" id="形状" fill-rule="nonzero"></path>
            <path d="M15.984062,11.7713176 C15.9810644,11.7708565 15.977894,11.765899 15.9747235,11.7672248 C15.9200184,11.7904557 15.8645063,11.8094209 15.8081872,11.8315566 C15.8073225,11.8317872 15.8068613,11.8299426 15.806112,11.8302884 C15.7472059,11.8531087 15.6879794,11.8750928 15.6284502,11.8962343 C15.6269514,11.8968684 15.6252797,11.8968684 15.6239539,11.8973872 C15.5663089,11.9180817 15.507684,11.9381421 15.4483673,11.9576838 C15.4416229,11.9599896 15.4349937,11.9619495 15.4283069,11.9641977 C15.3698549,11.9832782 15.3109994,12.0017246 15.2513368,12.0197674 L15.2331787,12.0250708 C15.1080231,12.062299 14.9819523,12.0963779 14.8550854,12.1272753 C14.8489993,12.1289073 14.8428881,12.1304447 14.8367543,12.1318869 C14.7651276,12.149119 14.6932968,12.1654913 14.6212774,12.1810004 C14.5579832,12.1944893 14.4944008,12.2075747 14.4300691,12.220026 C14.4236128,12.2212942 14.4170413,12.2224471 14.4106427,12.2236576 C14.2762063,12.2492024 14.1411831,12.2715557 14.0056868,12.2906987 C13.9298595,12.3017392 13.8538754,12.3116744 13.7777587,12.3205012 C13.7665179,12.322 13.7553924,12.3231529 13.7442093,12.3245363 C13.6764188,12.3322031 13.6084554,12.339524 13.5399732,12.3459803 C13.5348428,12.3464414 13.5295971,12.3467297 13.5243514,12.3473061 C13.4486952,12.3542229 13.3729643,12.3602952 13.2971726,12.3655219 C13.2290939,12.3702488 13.160554,12.374111 13.0916683,12.3774544 C13.081811,12.3780885 13.0718384,12.378492 13.0620388,12.3789532 L13.0620388,14.5992066 C15.8212149,14.4737711 17.9871091,13.2483545 17.9871091,11.7552923 L17.9871091,9.86367286 L17.9536174,9.86367286 C17.793595,10.6545618 17.0596593,11.3233586 15.984062,11.7713176 Z M6.12412162,10.3310006 C9.49940715,10.3310006 12.23541,8.8824403 12.23541,7.09567704 L12.23541,4.93877545 L12.1976526,4.93877545 C12.0160709,5.83746041 11.1840235,6.59237886 9.96506314,7.09567704 L9.96552431,7.09567704 C9.96189267,7.09567704 9.95837634,7.09850164 9.9547447,7.10005804 C9.89215974,7.12679705 9.82920534,7.15266294 9.76589981,7.17764817 C9.76509278,7.17787875 9.76440104,7.17822461 9.76365165,7.17857048 C9.69759052,7.20445307 9.63043414,7.22981685 9.56218251,7.25437361 L9.55722504,7.25616061 C9.49113392,7.2798425 9.42476055,7.3027292 9.35811933,7.32481575 C9.35056783,7.32740978 9.34301635,7.32977322 9.33534957,7.33230959 C9.26876842,7.35415464 9.20191415,7.3751583 9.13480275,7.39531555 C9.12800064,7.39739078 9.12108324,7.39935069 9.11428114,7.40136826 C8.97243321,7.44348388 8.82958549,7.4821558 8.68586377,7.51734994 C8.67894637,7.51902164 8.67191369,7.52080864 8.66493866,7.52242268 C8.58382563,7.54215289 8.50244229,7.56075479 8.42081224,7.57822301 C8.34915954,7.59355658 8.2770457,7.60831369 8.20406717,7.62237906 L8.18210443,7.62647186 C8.10494196,7.64124728 8.02759543,7.65504475 7.95008346,7.66786094 C7.87508736,7.68013931 7.79934188,7.69172595 7.72301995,7.70262084 C7.71126038,7.70435018 7.6995008,7.70607954 7.68774123,7.7076936 C7.52407643,7.7305143 7.35991985,7.74965725 7.1953956,7.76510799 C7.1895158,7.76574209 7.18357839,7.76608796 7.17775625,7.76672203 C7.09196948,7.77465707 7.00609166,7.78157495 6.9201409,7.78747423 C6.84306959,7.79283521 6.76530653,7.79715858 6.68725526,7.80107844 L6.64309923,7.80309601 C6.56568205,7.80667001 6.48797662,7.80932168 6.40986769,7.81128161 C6.39707051,7.81162748 6.38398511,7.81180041 6.37113027,7.81208862 C6.28927443,7.81376032 6.20701506,7.81491322 6.12412162,7.81491322 C6.04134345,7.81491322 5.95908408,7.81376032 5.8771706,7.81208862 C5.86425813,7.81185805 5.85128801,7.81162746 5.83843318,7.81128161 C5.76026661,7.80937933 5.68244591,7.80667001 5.60514401,7.80309601 L5.56093032,7.80107844 C5.48325841,7.79731919 5.40562599,7.79278422 5.32804467,7.78747423 L5.299741,7.78539901 C5.22323974,7.77998626 5.14679819,7.77376025 5.07042933,7.76672203 C5.06454953,7.76608794 5.05872739,7.76574207 5.05290527,7.76510799 C4.97570483,7.7578862 4.89858999,7.74977694 4.82157603,7.74078181 L4.78358799,7.73645844 C4.70915083,7.72761665 4.6348043,7.71802789 4.56055964,7.7076936 C4.54880007,7.70607954 4.53715579,7.7043502 4.5253962,7.70262084 C4.44723957,7.6914353 4.36920317,7.67942527 4.29130001,7.66659274 C4.21609547,7.65405921 4.14103681,7.64066548 4.06613878,7.6264142 C3.98641284,7.61133205 3.90687596,7.5952671 3.82754629,7.57822301 L3.79595685,7.57136327 C3.72486145,7.55593667 3.65395308,7.53966041 3.58324694,7.52253798 C3.57632954,7.52086628 3.56941214,7.51907928 3.56249474,7.51746521 C3.41869438,7.48223785 3.2757697,7.44352748 3.1338468,7.40136826 C3.1270447,7.39929303 3.12024259,7.39733312 3.11344049,7.39537319 C2.97148799,7.35257886 2.83065369,7.30615948 2.69107583,7.25616061 L2.68606072,7.25437361 C2.61781042,7.22971073 2.54987984,7.2041719 2.48228579,7.17776345 C2.4189891,7.15278381 2.35605355,7.12689856 2.29349853,7.10011568 C2.29003983,7.09873221 2.2862929,7.09573467 2.2828342,7.09573467 L2.28318009,7.09573467 C1.06404677,6.59249414 0.232114653,5.83751807 0.0505330085,4.93883309 L0.0127755574,4.93883309 L0.0127755574,7.09573467 C0.0128908532,8.8824403 2.74900902,10.3310006 6.12412162,10.3310006 Z" id="形状" fill-rule="nonzero"></path>
            <path d="M6.12412162,14.1594908 C9.49940715,14.1594908 12.23541,12.7109882 12.23541,10.9241096 L12.23541,8.74933809 L12.1976526,8.74933809 C12.0160709,9.68405117 11.1843118,10.3848986 9.96506314,10.924052 C9.96171974,10.923879 9.95826104,10.9270495 9.9547447,10.9285483 C9.89139556,10.9555595 9.82769231,10.9817326 9.76365165,11.0070607 C9.69683536,11.0331861 9.62967299,11.0584177 9.56218251,11.0827485 C9.56051081,11.0834403 9.55872381,11.0840167 9.55722504,11.0847085 C9.49168271,11.1082276 9.42516044,11.131055 9.35811933,11.1532483 L9.33534957,11.1606845 C9.26923081,11.1823014 9.20242028,11.2033995 9.13480275,11.2236905 L9.11428114,11.2298585 C8.97246256,11.2720424 8.8296122,11.3106766 8.68586377,11.3457249 C8.67883109,11.3474542 8.67191369,11.3492989 8.66493866,11.3509706 C8.58375216,11.3705799 8.50231204,11.389124 8.4206393,11.406598 C8.34904427,11.4220468 8.27693041,11.4368039 8.20395188,11.450754 C8.19663097,11.4521951 8.18919477,11.4535209 8.18198916,11.4548468 C8.10756952,11.4689698 8.03274635,11.4824587 7.95723145,11.4949677 L7.95002582,11.4961782 C7.87502972,11.5085719 7.79916895,11.5201009 7.72301995,11.5309381 C7.63705751,11.5432959 7.55094887,11.5546143 7.46471288,11.564891 C7.45203098,11.5662169 7.4393491,11.5678309 7.42660956,11.5692144 C7.34963951,11.5782412 7.27256248,11.5863313 7.1953956,11.5934829 C7.1895158,11.5940594 7.18363603,11.5946935 7.17775625,11.5949817 C7.10178019,11.6019567 7.02534297,11.6081824 6.94855988,11.6136587 L6.9201409,11.6157339 C6.8429543,11.6210372 6.76530653,11.6255335 6.68725526,11.6292228 L6.64309923,11.631298 C6.56538355,11.6347485 6.48763599,11.6374387 6.40986769,11.6393683 C6.39695522,11.6397718 6.38398511,11.6399447 6.37113027,11.6401177 C6.28915914,11.6419047 6.20701506,11.6430576 6.12412162,11.6430576 C6.04134345,11.6430576 5.95908408,11.6419047 5.8771706,11.6401177 C5.86425813,11.6398295 5.85128801,11.6397718 5.83849082,11.6393683 C5.76072159,11.6374705 5.68297371,11.6347803 5.6052593,11.631298 L5.56110326,11.6292228 C5.48299432,11.6255335 5.40546185,11.6209796 5.32827525,11.6157339 L5.29991393,11.6136587 C5.22341486,11.6082173 5.14697362,11.6019913 5.07060228,11.5949817 C5.06478014,11.5945782 5.058958,11.5940017 5.05313584,11.5934829 C4.97593058,11.5863313 4.89881514,11.5782412 4.8218066,11.5692144 C4.8091247,11.5678309 4.79638519,11.5662169 4.78376094,11.564891 C4.70888014,11.5559561 4.63446048,11.546387 4.56073257,11.5360685 C4.548973,11.5344545 4.53732873,11.5327251 4.52556915,11.5310534 C4.44930488,11.5201585 4.37332881,11.5085719 4.29833269,11.4962359 L4.29135765,11.4950253 C4.21615902,11.482478 4.14110074,11.4691035 4.06619644,11.4549044 L4.04440663,11.4509846 C3.96136564,11.43505 3.87854163,11.4180048 3.79595685,11.3998535 C3.71795476,11.3828771 3.64018467,11.3648518 3.56266767,11.3457825 C3.41883267,11.3106998 3.27588712,11.2720658 3.1339621,11.2299161 L3.11355578,11.2238634 C3.04648298,11.2036006 2.97963017,11.1826166 2.91300896,11.1609151 C2.83869545,11.1365786 2.76472957,11.111193 2.69113349,11.0847661 C2.68940415,11.0840167 2.68779008,11.0834979 2.68611838,11.0828062 C2.6178487,11.058176 2.54991742,11.0326177 2.48234343,11.0061384 C2.41841516,10.9810052 2.35558216,10.9640576 2.29355617,10.9377138 C2.29009747,10.9362151 2.28652349,10.9239943 2.28312243,10.9241673 C1.06410439,10.3849563 0.23222993,9.68416646 0.050590666,8.74945337 L0.0128332149,8.74945337 L0.0128332149,10.9242249 C0.0128908532,12.7109882 2.74900904,14.1594908 6.12412162,14.1594908 Z" id="路径"></path>
            <path d="M12.23541,14.7526575 L12.23541,12.5598431 L12.1976526,12.5598431 C12.0160709,13.4586433 11.1840235,14.2134465 9.96506314,14.7526575 L9.96552431,14.7526575 C9.96189267,14.7526575 9.95837634,14.7555397 9.9547447,14.7569808 C9.89266107,14.7833822 9.82988571,14.8094378 9.76589981,14.8344557 C9.76509278,14.8349168 9.76440104,14.8352051 9.76365165,14.8355509 C9.69759052,14.8614335 9.63043414,14.8866244 9.56218251,14.9112388 L9.55722504,14.9130834 C9.49113392,14.9367653 9.42476055,14.959652 9.35811933,14.9817386 C9.35056783,14.9842173 9.34301635,14.9866384 9.33534957,14.9892324 C9.26923081,15.0107916 9.20242028,15.031832 9.13480275,15.0521807 L9.11428114,15.0582911 C8.97243372,15.1004261 8.829586,15.1391172 8.68586377,15.1743304 L8.66493866,15.1793455 C8.59431869,15.1964797 8.52350691,15.2128135 8.45251696,15.2283437 C8.44191029,15.2305919 8.43130361,15.2327247 8.42081224,15.2350882 C8.34915954,15.2504217 8.2770457,15.2651788 8.20406717,15.2792442 L8.18210443,15.283337 C8.10493025,15.2979951 8.02758445,15.3117348 7.95008346,15.3245531 C7.87508736,15.3370045 7.79934188,15.3484182 7.72301995,15.3594284 C7.71126038,15.3610424 7.6995008,15.3628294 7.68774123,15.3645011 C7.61401333,15.3748195 7.53965133,15.3844463 7.46471288,15.3931507 C7.45208864,15.3947071 7.43940674,15.3960329 7.42660956,15.397474 C7.3501147,15.4062937 7.27304339,15.4145946 7.1953956,15.4218002 C7.1895158,15.4224343 7.18357839,15.4228378 7.17775625,15.4233566 C7.09195663,15.4311085 7.00608041,15.4379878 6.9201409,15.4439935 C6.84306959,15.4492968 6.76530653,15.4537355 6.68725526,15.4574824 L6.64309923,15.4596729 C6.56568205,15.4631316 6.48797662,15.4657833 6.40986769,15.4677432 C6.39707051,15.4680891 6.38398511,15.4683197 6.37113027,15.4684926 C6.28927443,15.470222 6.20701506,15.4714902 6.12412162,15.4714902 C6.04134345,15.4714902 5.95908408,15.4702796 5.8771706,15.4684926 L5.83843318,15.4677432 C5.76026661,15.465841 5.68244591,15.4631316 5.60514401,15.4596729 L5.56093032,15.4574824 C5.48325881,15.4537614 5.40562639,15.4492649 5.32804467,15.4439935 C5.3185909,15.4434171 5.30919477,15.4426677 5.299741,15.4419759 C5.22325088,15.4364391 5.14681072,15.4302324 5.07042933,15.4233566 C5.06454953,15.4226649 5.05872739,15.422319 5.05290527,15.4218002 C4.97570767,15.4145499 4.89859315,15.4064407 4.82157603,15.397474 C4.80889413,15.3960329 4.79621225,15.3947071 4.78358799,15.3931507 C4.70913309,15.3844316 4.634785,15.3748234 4.56055964,15.3643282 C4.54880007,15.3628294 4.53715579,15.3610424 4.5253962,15.3594284 C4.44907427,15.3484182 4.37327113,15.3369468 4.29827505,15.3245531 C4.29585396,15.3242073 4.29360581,15.3237461 4.29130001,15.323285 C4.21561218,15.3107183 4.14061608,15.2973447 4.06613878,15.283337 L4.044349,15.2792442 C3.97192416,15.2653085 3.89965236,15.250589 3.82754629,15.2350882 C3.81699726,15.2326671 3.80650588,15.2305342 3.79595685,15.2282284 C3.72486709,15.2127362 3.65395903,15.1964216 3.58324694,15.1792878 L3.56249474,15.1742727 C3.41868744,15.1390723 3.2757621,15.1003618 3.1338468,15.0581758 L3.11344049,15.0521807 C3.03873791,15.0295863 2.96431277,15.0060847 2.89018155,14.9816809 C2.82186047,14.9590418 2.75381523,14.9355786 2.68606072,14.9112964 C2.61780031,14.8866212 2.54986939,14.8610438 2.48228579,14.834571 C2.41901929,14.8095363 2.35608476,14.7836707 2.29349853,14.7569808 C2.29003983,14.7555397 2.2862929,14.7526575 2.2828342,14.7526575 L2.28318009,14.7526575 C1.06404677,14.2134465 0.232114653,13.4586433 0.0505330085,12.5598431 L0.0127755574,12.5598431 L0.0127755574,14.7526575 C0.0127755574,16.539536 2.74889373,17.9880387 6.12406398,17.9880387 C9.49940715,17.9880387 12.23541,16.5395937 12.23541,14.7526575 Z M4.7441012,6.40157402 C5.20200102,6.45716891 5.66285934,6.48485121 6.12412162,6.48446749 C6.59888554,6.48446749 7.06085226,6.45581794 7.50431497,6.40157402 C10.1655523,6.07639879 12.1616821,4.83109464 12.2333348,3.33261383 C12.2347183,3.30488661 12.23541,3.27698644 12.23541,3.24914392 C12.23541,1.46226535 9.49923419,0.0137627234 6.12412162,0.0137627426 C2.74900902,0.0137627426 0.0128908532,1.46226537 0.0128908532,3.24914392 C0.0128908532,3.27698644 0.0136402468,3.30488661 0.0149660809,3.33261383 C0.0866764149,4.83109464 2.08292149,6.07645643 4.7441012,6.40157402 Z" id="形状" fill-rule="nonzero"></path>
        </g>
    </g>
</svg>