<?xml version="1.0" standalone="no"?><!DOCTYPE svg PUBLIC "-//W3C//DTD SVG 1.1//EN" "http://www.w3.org/Graphics/SVG/1.1/DTD/svg11.dtd"><svg t="1547536314817" class="icon" style="" viewBox="0 0 1024 1024" version="1.1" xmlns="http://www.w3.org/2000/svg" p-id="5470" xmlns:xlink="http://www.w3.org/1999/xlink" width="200" height="200"><defs><style type="text/css"></style></defs><path d="M0 192m64 0l896 0q64 0 64 64l0 0q0 64-64 64l-896 0q-64 0-64-64l0 0q0-64 64-64Z" fill="#333" p-id="5471"></path><path d="M128 896m64 0l640 0q64 0 64 64l0 0q0 64-64 64l-640 0q-64 0-64-64l0 0q0-64 64-64Z" fill="#333" p-id="5472"></path><path d="M128 384m64 0l0 0q64 0 64 64l0 512q0 64-64 64l0 0q-64 0-64-64l0-512q0-64 64-64Z" fill="#333" p-id="5473"></path><path d="M448 384m64 0l0 0q64 0 64 64l0 256q0 64-64 64l0 0q-64 0-64-64l0-256q0-64 64-64Z" fill="#333" p-id="5474"></path><path d="M768 384m64 0l0 0q64 0 64 64l0 512q0 64-64 64l0 0q-64 0-64-64l0-512q0-64 64-64Z" fill="#333" p-id="5475"></path><path d="M338.048 0h347.904c28.544 0 38.848 2.944 49.28 8.576 10.432 5.568 18.624 13.76 24.192 24.192 5.632 10.432 8.576 20.736 8.576 49.28v155.904c0 28.544-2.944 38.848-8.576 49.28a58.176 58.176 0 0 1-24.192 24.192c-10.432 5.632-20.736 8.576-49.28 8.576H338.048c-28.544 0-38.848-2.944-49.28-8.576a58.176 58.176 0 0 1-24.192-24.192C258.944 276.8 256 266.496 256 237.952V82.048c0-28.544 2.944-38.848 8.576-49.28a58.176 58.176 0 0 1 24.192-24.192C299.2 2.944 309.504 0 338.048 0zM384 128v64h256V128H384z" fill="#333" p-id="5476"></path></svg>