<?xml version="1.0" standalone="no"?><!DOCTYPE svg PUBLIC "-//W3C//DTD SVG 1.1//EN" "http://www.w3.org/Graphics/SVG/1.1/DTD/svg11.dtd"><svg t="1547120889785" class="icon" style="" viewBox="0 0 1024 1024" version="1.1" xmlns="http://www.w3.org/2000/svg" p-id="18959" xmlns:xlink="http://www.w3.org/1999/xlink" width="200" height="200"><defs><style type="text/css"></style></defs><path d="M859.1872 103.0656H164.8128C130.6112 103.0656 102.4 128.2048 102.4 158.72v707.8912c0 30.5152 28.16 55.6544 62.4128 55.6544h694.3744c34.2016 0 62.4128-25.1392 62.4128-55.6544V158.72c0-30.5152-28.16-55.6544-62.4128-55.6544z m-86.784 369.7152c5.8368 0 11.1104 4.7616 11.1104 11.1104a10.8032 10.8032 0 0 1-11.1104 11.0592h-93.44v43.8272h93.44c5.8368 0 11.1104 4.7616 11.1104 11.1104a10.8032 10.8032 0 0 1-11.1104 11.0592h-93.44v43.8272h93.44c5.8368 0 11.1104 4.7616 11.1104 11.0592a10.8032 10.8032 0 0 1-11.1104 11.1104H677.376a81.664 81.664 0 0 1-65.9968 63.8976v84.48a10.752 10.752 0 0 1-11.0592 10.496 10.8032 10.8032 0 0 1-11.1104-11.0592v-83.456h-43.8272v83.456a10.752 10.752 0 0 1-11.0592 10.5472 10.8032 10.8032 0 0 1-11.1104-11.0592v-83.456h-43.776v83.456a10.752 10.752 0 0 1-11.1104 10.5472 10.8032 10.8032 0 0 1-11.0592-11.1104v-83.4048h-43.8272v83.456a10.752 10.752 0 0 1-11.1104 10.5472 10.8032 10.8032 0 0 1-11.0592-11.1104v-86.016a80.384 80.384 0 0 1-58.624-62.3104H236.5952a11.1616 11.1616 0 0 1-11.1104-11.1104c0-6.3488 4.7616-11.0592 11.1104-11.0592h94.464v-43.8272H236.5952a11.1616 11.1616 0 0 1-11.1104-11.1104c0-6.2976 4.7616-11.0592 11.1104-11.0592h94.464v-43.8272H236.5952a11.1616 11.1616 0 0 1-11.1104-11.1104c0-6.2976 4.7616-11.0592 11.1104-11.0592h94.464v-43.8272H236.5952a11.1616 11.1616 0 0 1-11.1104-11.0592c0-6.3488 4.7616-11.1104 11.1104-11.1104h96.6144a81.5616 81.5616 0 0 1 58.5728-60.7232V251.0848c0-5.8368 4.7616-11.1104 11.1104-11.1104 6.2976 0 11.0592 4.7616 11.0592 11.1104v90.2656h43.8272V251.0848c0-5.8368 4.7616-11.1104 11.0592-11.1104 6.3488 0 11.1104 4.7616 11.1104 11.1104v90.2656h43.8272V251.0848c0-5.8368 4.7616-11.1104 11.0592-11.1104 6.3488 0 11.1104 4.7616 11.1104 11.1104v90.2656h43.8272V251.0848c0-5.8368 4.7104-11.1104 11.0592-11.1104s11.1104 4.7616 11.1104 11.1104v91.2896c32.7168 5.2736 58.5728 30.1056 65.9968 62.3104h95.5392c5.7856 0 11.0592 4.7616 11.0592 11.1104a10.8032 10.8032 0 0 1-11.0592 11.0592h-93.44v43.8272h92.3648v2.0992z" p-id="18960"></path><path d="M563.3536 641.7408H448.256c-36.9152 0-67.584-30.6176-67.584-67.584V459.0592c0-36.9664 30.6688-67.584 67.584-67.584h115.0976c36.9664 0 67.584 30.6176 67.584 67.584v115.0976c0 36.9664-30.6176 67.584-67.584 67.584z" p-id="18961"></path></svg>