<?xml version="1.0" encoding="UTF-8"?>
<svg width="20px" height="20px" viewBox="0 0 20 20" version="1.1" xmlns="http://www.w3.org/2000/svg" xmlns:xlink="http://www.w3.org/1999/xlink">
    <!-- Generator: Sketch 52.4 (67378) - http://www.bohemiancoding.com/sketch -->
    <title>采集器管理</title>
    <desc>Created with Sketch.</desc>
    <g id="采集器管理" stroke="none" stroke-width="1" fill-rule="evenodd">
        <g id="caijiqiguanli" transform="translate(2.000000, 2.000000)">
            <path d="M14.7810384,0.0132108244 L1.21896163,0.0132108244 C0.550790068,0.0132108244 0,0.504403577 0,1.10027675 L0,14.9261449 C0,15.5220181 0.550790068,16.0132108 1.21896163,16.0132108 L14.7810384,16.0132108 C15.4492099,16.0132108 16,15.5220181 16,14.9261449 L16,1.10027675 C16,0.504403577 15.4492099,0.0132108244 14.7810384,0.0132108244 Z M13.0861674,7.23413468 C13.1995872,7.23413468 13.302696,7.32693266 13.302696,7.45066331 C13.302696,7.57439396 13.209898,7.66719194 13.0861674,7.66719194 L11.2611403,7.66719194 L11.2611403,8.52299559 L13.0861674,8.52299559 C13.1995872,8.52299559 13.302696,8.61579358 13.302696,8.73952423 C13.302696,8.86325488 13.209898,8.95605286 13.0861674,8.95605286 L11.2611403,8.95605286 L11.2611403,9.81185651 L13.0861674,9.81185651 C13.1995872,9.81185651 13.302696,9.9046545 13.302696,10.0283851 C13.302696,10.1521158 13.209898,10.2449138 13.0861674,10.2449138 L11.2302077,10.2449138 C11.106477,10.8841888 10.5806218,11.3791114 9.94134676,11.4925312 L9.94134676,13.1422731 C9.94134676,13.2556929 9.84854877,13.3484909 9.72481812,13.3484909 C9.60108748,13.3484909 9.50828949,13.2556929 9.50828949,13.1319622 L9.50828949,11.502842 L8.65248584,11.502842 L8.65248584,13.1319622 C8.65248584,13.245382 8.55968785,13.33818 8.43595721,13.33818 C8.31222656,13.33818 8.21942857,13.245382 8.21942857,13.1216514 L8.21942857,11.4925312 L7.36362492,11.4925312 L7.36362492,13.1216514 C7.36362492,13.2350711 7.27082694,13.3278691 7.14709629,13.3278691 C7.02336564,13.3278691 6.93056765,13.2350711 6.93056765,13.1113405 L6.93056765,11.4822203 L6.074764,11.4822203 L6.074764,13.1113405 C6.074764,13.2247602 5.98196602,13.3175582 5.85823537,13.3175582 C5.73450472,13.3175582 5.64170673,13.2247602 5.64170673,13.1010296 L5.64170673,11.4203549 C5.06429704,11.2656916 4.610618,10.8017017 4.49719824,10.2036702 L2.62061674,10.2036702 C2.50719698,10.2036702 2.40408811,10.1108722 2.40408811,9.9871416 C2.40408811,9.86341095 2.49688609,9.77061296 2.62061674,9.77061296 L4.46626558,9.77061296 L4.46626558,8.91480931 L2.62061674,8.91480931 C2.50719698,8.91480931 2.40408811,8.82201133 2.40408811,8.69828068 C2.40408811,8.57455003 2.49688609,8.48175205 2.62061674,8.48175205 L4.46626558,8.48175205 L4.46626558,7.6259484 L2.62061674,7.6259484 C2.50719698,7.6259484 2.40408811,7.53315041 2.40408811,7.40941976 C2.40408811,7.28568911 2.49688609,7.19289113 2.62061674,7.19289113 L4.46626558,7.19289113 L4.46626558,6.33708748 L2.62061674,6.33708748 C2.50719698,6.33708748 2.40408811,6.24428949 2.40408811,6.12055884 C2.40408811,5.99682819 2.49688609,5.90403021 2.62061674,5.90403021 L4.50750913,5.90403021 C4.63123977,5.32662052 5.08491882,4.87294147 5.65201762,4.71827816 L5.65201762,2.90356199 C5.65201762,2.79014223 5.74481561,2.68703335 5.86854626,2.68703335 C5.9922769,2.68703335 6.08507489,2.77983134 6.08507489,2.90356199 L6.08507489,4.66672373 L6.94087854,4.66672373 L6.94087854,2.90356199 C6.94087854,2.79014223 7.03367653,2.68703335 7.15740717,2.68703335 C7.28113782,2.68703335 7.37393581,2.77983134 7.37393581,2.90356199 L7.37393581,4.66672373 L8.22973946,4.66672373 L8.22973946,2.90356199 C8.22973946,2.79014223 8.32253744,2.68703335 8.44626809,2.68703335 C8.56999874,2.68703335 8.66279673,2.77983134 8.66279673,2.90356199 L8.66279673,4.66672373 L9.51860038,4.66672373 L9.51860038,2.90356199 C9.51860038,2.79014223 9.61139836,2.68703335 9.73512901,2.68703335 C9.85885966,2.68703335 9.95165765,2.77983134 9.95165765,2.90356199 L9.95165765,4.6873455 C10.5909327,4.79045437 11.0961661,5.27506608 11.2405186,5.90403021 L13.1067892,5.90403021 C13.2202089,5.90403021 13.3233178,5.99682819 13.3233178,6.12055884 C13.3233178,6.24428949 13.2305198,6.33708748 13.1067892,6.33708748 L11.2817621,6.33708748 L11.2817621,7.19289113 L13.0861674,7.19289113 L13.0861674,7.23413468 Z" id="形状" fill-rule="nonzero"></path>
            <path d="M9.00305601,10.5336186 L6.75528257,10.5336186 C6.03352045,10.5336186 5.43548899,9.93558716 5.43548899,9.21382505 L5.43548899,6.9660516 C5.43548899,6.24428949 6.03352045,5.64625802 6.75528257,5.64625802 L9.00305601,5.64625802 C9.72481812,5.64625802 10.3228496,6.24428949 10.3228496,6.9660516 L10.3228496,9.21382505 C10.3228496,9.93558716 9.72481812,10.5336186 9.00305601,10.5336186 Z" id="路径"></path>
        </g>
    </g>
</svg>