<?xml version="1.0" encoding="UTF-8"?>
<svg width="16px" height="16px" viewBox="0 0 16 16" version="1.1" xmlns="http://www.w3.org/2000/svg" xmlns:xlink="http://www.w3.org/1999/xlink">
    <!-- Generator: Sketch 52.4 (67378) - http://www.bohemiancoding.com/sketch -->
    <title></title>
    <desc>Created with Sketch.</desc>
    <g id="组件" stroke="none" stroke-width="1" fill="none" fill-rule="evenodd">
        <g id="10图标" transform="translate(-243.000000, -681.000000)">
            <g id="删除" transform="translate(243.000000, 681.000000)">
                <path d="M8,15 C11.8659932,15 15,11.8659932 15,8 C15,4.13400675 11.8659932,1 8,1 C4.13400675,1 1,4.13400675 1,8 C1,11.8659932 4.13400675,15 8,15 Z M8,15 C4.13400675,15 1,11.8659932 1,8 C1,4.13400675 4.13400675,1 8,1 C11.8659932,1 15,4.13400675 15,8 C15,11.8659932 11.8659932,15 8,15 Z" id="Combined-Shape" stroke="#EE5555" stroke-width="2" fill="#D8D8D8"></path>
                <path d="M8,0 L8,0 C8.55228475,-1.01453063e-16 9,0.44771525 9,1 L9,15 C9,15.5522847 8.55228475,16 8,16 L8,16 C7.44771525,16 7,15.5522847 7,15 L7,1 C7,0.44771525 7.44771525,1.01453063e-16 8,0 Z" id="Rectangle-20" fill="#EE5555" transform="translate(8.000000, 8.000000) rotate(-45.000000) translate(-8.000000, -8.000000) "></path>
            </g>
        </g>
    </g>
</svg>