<?xml version="1.0" standalone="no"?><!DOCTYPE svg PUBLIC "-//W3C//DTD SVG 1.1//EN" "http://www.w3.org/Graphics/SVG/1.1/DTD/svg11.dtd"><svg t="1575371876921" class="icon" viewBox="0 0 1024 1024" version="1.1" xmlns="http://www.w3.org/2000/svg" p-id="1674" xmlns:xlink="http://www.w3.org/1999/xlink" width="200" height="200"><defs><style type="text/css"></style></defs><path d="M192 832h640c17.673 0 32 14.327 32 32 0 17.673-14.327 32-32 32H192c-17.673 0-32-14.327-32-32 0-17.673 14.327-32 32-32z m160-384V96c0-17.673 14.327-32 32-32h256c17.673 0 32 14.327 32 32v352h146.745a32 32 0 0 1 22.628 9.373c12.496 12.496 12.496 32.758 0 45.254L534.627 809.373c-12.496 12.496-32.758 12.496-45.254 0L182.627 502.627A31.999 31.999 0 0 1 173.255 480c0-17.673 14.327-32 32-32H352z" fill="#33B6C6" p-id="1675"></path></svg>