<?xml version="1.0" standalone="no"?><!DOCTYPE svg PUBLIC "-//W3C//DTD SVG 1.1//EN" "http://www.w3.org/Graphics/SVG/1.1/DTD/svg11.dtd"><svg t="1547121275631" class="icon" style="" viewBox="0 0 1024 1024" version="1.1" xmlns="http://www.w3.org/2000/svg" p-id="19074" xmlns:xlink="http://www.w3.org/1999/xlink" width="200" height="200"><defs><style type="text/css"></style></defs><path d="M711.9872 728.4736c221.4912-197.632 131.6864-610.5088-230.5024-607.5904 326.2976 20.6848 326.2976 457.216 92.8256 433.6128-215.552-32.4608-164.6592 218.2656 8.96 218.2656 47.872 0 92.7744-14.7456 128.7168-44.288m-90.88 114.944c-187.0848 14.7456-304.7424-103.1168-268.544-215.04 57.344-188.4672-15.104-220.8768-81.4592-188.4672 90.5216-64.8192 120.6784-47.104 202.1888 0 165.9392 97.1776 277.6064-97.2288 129.7408-206.1824-99.584-58.9312-235.3664-38.2976-313.856 29.44-84.48 70.656-114.688 185.5488-87.5008 300.4416 24.1664 85.4016 90.5216 182.6304 165.9904 232.6528 66.3552 44.1856 150.8864 67.7888 253.44 47.1552M110.848 191.3344c210.1248-199.68 602.9824-193.8432 800.9216-8.8064 109.568 461.056-133.9904 681.3184-398.9504 798.8224-334.9504-158.6176-493.312-399.4112-401.92-790.016" p-id="19075"></path></svg>