<?xml version="1.0" standalone="no"?><!DOCTYPE svg PUBLIC "-//W3C//DTD SVG 1.1//EN" "http://www.w3.org/Graphics/SVG/1.1/DTD/svg11.dtd"><svg t="1544513621583" class="icon" style="" viewBox="0 0 1024 1024" version="1.1" xmlns="http://www.w3.org/2000/svg" p-id="6154" xmlns:xlink="http://www.w3.org/1999/xlink" width="200" height="200"><defs><style type="text/css"></style></defs><path d="M0 128h512c4.096 0 9.408 3.2 0 0l64 128H0V128c0 5.76 6.4 0 0 0z" fill="#F5A623" p-id="6155"></path><path d="M0 256h883.2c7.04 0 12.8 5.76 12.8 12.8V896H0V256z" fill="#FFC15C" p-id="6156"></path><path d="M805.952 615.68V523.712c0-6.528 5.12-11.776 11.52-11.776 2.752 0 5.44 1.024 7.552 2.944l191.104 171.328a24 24 0 0 1 0 35.456l-191.104 171.328a11.328 11.328 0 0 1-16.192-1.088 11.968 11.968 0 0 1-2.88-7.744V792.32H587.52c-6.4 0-11.52-5.312-11.52-11.776V627.392c0-6.464 5.12-11.776 11.52-11.776h218.432z" fill="#65BA03" p-id="6157"></path></svg>