<?xml version="1.0" encoding="UTF-8"?>
<svg width="16px" height="16px" viewBox="0 0 16 16" version="1.1" xmlns="http://www.w3.org/2000/svg" xmlns:xlink="http://www.w3.org/1999/xlink">
    <!-- Generator: Sketch 52.4 (67378) - http://www.bohemiancoding.com/sketch -->
    <title>正常 copy</title>
    <desc>Created with Sketch.</desc>
    <g id="正常-copy" stroke="none" stroke-width="1" fill="none" fill-rule="evenodd">
        <g id="已处理">
            <circle id="Oval-7" fill="#FF5760" cx="8" cy="8" r="8"></circle>
            <path d="M9.65685425,8.24264069 L11.7781746,10.363961 C12.1686989,10.7544853 12.1686989,11.3876503 11.7781746,11.7781746 C11.3876503,12.1686989 10.7544853,12.1686989 10.363961,11.7781746 L8.24264069,9.65685425 L6.12132034,11.7781746 C5.73079605,12.1686989 5.09763107,12.1686989 4.70710678,11.7781746 C4.31658249,11.3876503 4.31658249,10.7544853 4.70710678,10.363961 L6.82842712,8.24264069 L4.70710678,6.12132034 C4.31658249,5.73079605 4.31658249,5.09763107 4.70710678,4.70710678 C5.09763107,4.31658249 5.73079605,4.31658249 6.12132034,4.70710678 L8.24264069,6.82842712 L10.363961,4.70710678 C10.7544853,4.31658249 11.3876503,4.31658249 11.7781746,4.70710678 C12.1686989,5.09763107 12.1686989,5.73079605 11.7781746,6.12132034 L9.65685425,8.24264069 Z" id="合并形状" fill="#FFFFFE" fill-rule="nonzero"></path>
        </g>
    </g>
</svg>