<?xml version="1.0" standalone="no"?><!DOCTYPE svg PUBLIC "-//W3C//DTD SVG 1.1//EN" "http://www.w3.org/Graphics/SVG/1.1/DTD/svg11.dtd"><svg t="1547550090647" class="icon" style="" viewBox="0 0 1056 1024" version="1.1" xmlns="http://www.w3.org/2000/svg" p-id="5408" xmlns:xlink="http://www.w3.org/1999/xlink" width="18.5625" height="18"><defs><style type="text/css"></style></defs><path d="M281.6 313.6h665.6v-51.2c0-57.6-44.8-102.4-102.4-102.4H448L352 64H102.4C44.8 64 0 108.8 0 166.4V768c0 57.6 44.8 102.4 102.4 102.4l83.2-467.2c6.4-51.2 51.2-89.6 96-89.6z" fill="#33BDBD" p-id="5409"></path><path d="M953.6 313.6H281.6c-44.8 0-89.6 38.4-96 83.2l-83.2 467.2H896c44.8 0 89.6-32 96-83.2l64-352c6.4-57.6-38.4-115.2-102.4-115.2z" fill="#70D0D0" p-id="5410"></path></svg>