<?xml version="1.0" standalone="no"?><!DOCTYPE svg PUBLIC "-//W3C//DTD SVG 1.1//EN" "http://www.w3.org/Graphics/SVG/1.1/DTD/svg11.dtd"><svg t="1547120822128" class="icon" style="" viewBox="0 0 1024 1024" version="1.1" xmlns="http://www.w3.org/2000/svg" p-id="18843" xmlns:xlink="http://www.w3.org/1999/xlink" width="200" height="200"><defs><style type="text/css"></style></defs><path d="M84.7872 736.1024l109.3632-43.6736a349.2352 349.2352 0 0 0 310.9376 189.44c192.768 0 349.0816-155.648 349.0816-347.5456S697.856 186.88 505.088 186.88A349.184 349.184 0 0 0 186.88 391.168L84.7872 352.256V292.7616L505.088 51.2l420.3008 241.5616v483.1232l-420.352 241.5616-420.2496-241.5616v-39.7824z" p-id="18844"></path><path d="M260.7616 665.8048l71.6288-28.6208a200.192 200.192 0 0 0 173.8752 100.5568 199.68 199.68 0 0 0 200.0384-199.168 199.68 199.68 0 0 0-200.0384-199.168c-76.8 0-143.4112 43.008-176.9984 106.1376l-71.936-27.4432a276.8384 276.8384 0 0 1 248.9344-154.9824c152.7808 0 276.6848 123.3408 276.6848 275.456s-123.904 275.456-276.6848 275.456a276.8384 276.8384 0 0 1-245.504-148.224z" p-id="18845"></path><path d="M478.464 538.2144L21.7088 720.6912l77.9264-176.4352-72.704-178.3296z" p-id="18846"></path></svg>