<?xml version="1.0" standalone="no"?><!DOCTYPE svg PUBLIC "-//W3C//DTD SVG 1.1//EN" "http://www.w3.org/Graphics/SVG/1.1/DTD/svg11.dtd"><svg t="1544513629573" class="icon" style="" viewBox="0 0 1024 1024" version="1.1" xmlns="http://www.w3.org/2000/svg" p-id="6265" xmlns:xlink="http://www.w3.org/1999/xlink" width="200" height="200"><defs><style type="text/css"></style></defs><path d="M0 128h512c4.096 0 9.408 3.2 0 0l64 128H0V128c0 5.76 6.4 0 0 0z" fill="#F5A623" p-id="6266"></path><path d="M0 256h883.2c7.04 0 12.8 5.76 12.8 12.8V896H0V256z" fill="#FFC15C" p-id="6267"></path><path d="M792.32 293.952h91.904c6.528 0 11.776 5.12 11.776 11.52a11.328 11.328 0 0 1-2.944 7.552l-171.328 191.104a24 24 0 0 1-35.456 0L514.944 313.024a11.328 11.328 0 0 1 1.088-16.192 11.968 11.968 0 0 1 7.744-2.88H615.68V75.52c0-6.4 5.312-11.52 11.776-11.52h153.216c6.464 0 11.776 5.12 11.776 11.52v218.432z" fill="#65BA03" p-id="6268"></path></svg>