<?xml version="1.0" standalone="no"?><!DOCTYPE svg PUBLIC "-//W3C//DTD SVG 1.1//EN" "http://www.w3.org/Graphics/SVG/1.1/DTD/svg11.dtd"><svg t="1545728251807" class="icon" style="" viewBox="0 0 1024 1024" version="1.1" xmlns="http://www.w3.org/2000/svg" p-id="5954" xmlns:xlink="http://www.w3.org/1999/xlink" width="16" height="16"><defs><style type="text/css"></style></defs><path d="M967.104 568.896A56.96 56.96 0 0 1 910.208 512 398.208 398.208 0 1 0 512 910.208 56.96 56.96 0 0 1 512 1024a512 512 0 0 1-512-512 512 512 0 0 1 512-512 512 512 0 0 1 512 512 56.96 56.96 0 0 1-56.896 56.896z" fill="#1ABFBF" p-id="5955"></path><path d="M711.104 938.688m-64 0a64 64 0 1 0 128 0 64 64 0 1 0-128 0Z" fill="#1ABFBF" p-id="5956"></path><path d="M853.312 853.312m-64 0a64 64 0 1 0 128 0 64 64 0 1 0-128 0Z" fill="#1ABFBF" p-id="5957"></path></svg>