<?xml version="1.0" standalone="no"?><!DOCTYPE svg PUBLIC "-//W3C//DTD SVG 1.1//EN" "http://www.w3.org/Graphics/SVG/1.1/DTD/svg11.dtd"><svg t="1547120764526" class="icon" style="" viewBox="0 0 1024 1024" version="1.1" xmlns="http://www.w3.org/2000/svg" p-id="18495" xmlns:xlink="http://www.w3.org/1999/xlink" width="200" height="200"><defs><style type="text/css"></style></defs><path d="M796.575264 958.754343l-25.422038-44.384811A128 128 0 1 0 610.475802 890.141238l-37.22529 35.140919L570.289521 921.953968a179.2 179.2 0 1 1 226.285743 36.800375z" p-id="18496"></path><path d="M589.610087 905.158857m-33.590223-38.64113a51.2 51.2 0 1 0 67.180445 77.282261 51.2 51.2 0 1 0-67.180445-77.282261Z" p-id="18497"></path><path d="M749.391058 968.157198L853.012215 968.580147l-103.666209-108.250444z" p-id="18498"></path><path d="M461.4656 776.1408c-170.1888-1.5872-307.2-75.1616-307.2-165.632V499.2h1.9456c9.2672 47.872 51.8656 83.7632 114.2784 111.36 0.2048 0 0.3584 0.6144 0.512 0.7168 3.2256 1.3312 6.4 2.2016 9.728 3.4816 3.4304 1.3824 6.912 2.6624 10.3936 3.9424l0.256 0.1024a424.96 424.96 0 0 0 21.6576 7.1168l1.024 0.3072a459.8272 459.8272 0 0 0 46.592 11.3152l1.1264 0.2048 11.52 2.048 0.3584 0.0512c3.84 0.6656 7.7312 1.2288 11.6736 1.792l1.792 0.256 11.4176 1.4848 1.9456 0.2048c3.9424 0.512 7.8848 0.8704 11.8272 1.2288l0.9216 0.1024 11.7248 0.9728 1.4336 0.1024c3.9424 0.256 7.936 0.512 11.9296 0.6656l2.2528 0.1024c3.9936 0.2048 7.9872 0.3072 11.9296 0.4096l2.048 0.0512a579.2256 579.2256 0 0 0 25.2416 0h1.9968l11.9296-0.4608 2.2528-0.1024c3.9936-0.1536 7.9872-0.4096 11.9296-0.6656l1.4848-0.1024 5.376-0.4096a229.376 229.376 0 0 0-53.2992 130.7136z m273.92-208.7424c22.6816-19.5584 37.6832-42.1376 42.752-68.2496h1.8944v81.8176a228.6592 228.6592 0 0 0-44.6976-13.568zM540.16 967.68c-23.4496 2.9696-47.872 4.5568-73.0624 4.5568-172.8 0-312.8832-74.1376-312.8832-165.632V694.272h1.9456c9.2672 46.0288 51.8656 84.6336 114.2784 112.2816 0.1536 0 0.3584 0.1536 0.512 0.2048a397.312 397.312 0 0 0 41.984 15.104l1.024 0.3072c7.3216 2.1504 14.6432 4.1472 22.016 5.9392l1.024 0.256 10.9056 2.56 1.6384 0.3072c3.6864 0.8192 7.3728 1.536 11.0592 2.2528l1.1264 0.2048c3.84 0.7168 7.68 1.4336 11.52 2.048l0.3584 0.1024 11.6224 1.7408 1.8432 0.256 11.4176 1.536 1.9456 0.1536c3.9424 0.512 7.8848 0.9216 11.776 1.28l0.9216 0.0512 11.776 0.9728 1.4336 0.1024c3.9936 0.256 7.936 0.512 11.9296 0.6656l2.2528 0.1536 11.9296 0.4096h2.048c3.84 0.1024 7.68 0.1536 11.6224 0.1536 10.8032 49.152 37.376 92.4672 74.0352 124.3136z m-73.0624-387.4816c-172.8 0-312.8832-74.1888-312.8832-165.632V304.0768h1.9456c9.2672 46.0288 51.8656 84.6336 114.2784 110.4384 0.1536 0 0.3584 0.1536 0.512 0.2048a364.7488 364.7488 0 0 0 20.1216 7.8848l0.256 0.1024c7.168 2.56 14.336 4.9664 21.6064 7.168l1.024 0.256c7.3216 2.2016 14.6432 4.1472 22.016 5.9392l1.024 0.3072 10.9056 2.4576 1.6384 0.3584a505.1904 505.1904 0 0 0 35.6864 6.4l1.8432 0.256c3.7888 0.512 7.5776 1.024 11.4176 1.4336l1.9456 0.256 11.776 1.2288 0.9216 0.1024c3.9424 0.3584 7.8336 0.6656 11.776 0.9216l1.4336 0.1024c3.9936 0.3072 7.936 0.512 11.9296 0.7168l2.2528 0.1024c3.9424 0.2048 7.936 0.3072 11.9296 0.4096l2.048 0.0512a619.0592 619.0592 0 0 0 25.2416 0h1.9968c3.9936-0.1536 7.9872-0.256 11.9296-0.4608l2.2528-0.1024a620.9536 620.9536 0 0 0 25.088-1.7408l0.9216-0.1024c8.448-0.768 16.896-1.7408 25.2416-2.9184l1.792-0.256a574.2592 574.2592 0 0 0 23.552-3.9424l1.0752-0.2048a553.984 553.984 0 0 0 23.552-5.12l1.1264-0.256c7.3728-1.792 14.6432-3.7888 21.9136-5.9392l1.024-0.3072c3.4816-1.024 6.912-2.048 10.2912-3.2256l1.1776-0.3584c3.4304-1.1264 6.8096-2.304 10.24-3.5328l0.2048-0.1024c3.4816-1.2288 6.9632-2.56 10.3424-3.84l0.1024-0.0512 9.6768-3.9936c0.1536-0.0512 0.3584-0.2048 0.512-0.2048 62.4128-25.8048 105.0112-64.4608 114.3296-110.4384h1.8944v110.4384c0 91.4432-140.0832 165.632-312.832 165.632z m-70.656-201.216c-136.2432-16.64-238.4384-80.384-242.1248-157.0816a89.6 89.6 0 0 1-0.1024-4.3008c0-91.4944 140.0832-165.632 312.8832-165.632 172.8 0 312.8832 74.1376 312.8832 165.632 0 1.4336 0 2.8672-0.1024 4.3008-3.6352 76.6976-105.8304 140.4416-242.1248 157.1328a582.8096 582.8096 0 0 1-141.312 0z" p-id="18499"></path></svg>