<?xml version="1.0" standalone="no"?><!DOCTYPE svg PUBLIC "-//W3C//DTD SVG 1.1//EN" "http://www.w3.org/Graphics/SVG/1.1/DTD/svg11.dtd"><svg t="1547120734730" class="icon" style="" viewBox="0 0 1024 1024" version="1.1" xmlns="http://www.w3.org/2000/svg" p-id="18263" xmlns:xlink="http://www.w3.org/1999/xlink" width="200" height="200"><defs><style type="text/css"></style></defs><path d="M693.2992 51.2c17.152 0 31.1296 13.9264 31.1296 31.1296V227.328a31.1296 31.1296 0 0 1-62.208 0V82.3296A31.1808 31.1808 0 0 1 693.248 51.2zM341.0944 51.2c17.152 0 31.1296 13.9264 31.1296 31.1296V227.328a31.1296 31.1296 0 0 1-62.2592 0V82.3296c0-17.2032 13.9776-31.1296 31.1296-31.1296z m-82.944 642.3552a31.1296 31.1296 0 0 0 0 62.208h227.9424a31.1296 31.1296 0 0 0 0-62.208H258.1504z m-12.1344-145.0496c-10.496 0-18.944 13.9264-18.944 31.0784 0 17.2032 8.448 31.1296 18.944 31.1296h315.648c10.496 0 18.944-13.9264 18.944-31.1296 0-17.152-8.448-31.0784-18.944-31.0784H246.016z m12.1344-144.9984a31.1296 31.1296 0 0 0 0 62.208h373.0432a31.1296 31.1296 0 0 0 0-62.208H258.1504z m673.4848 217.088A223.0272 223.0272 0 1 0 602.9824 921.6H144.1792a41.472 41.472 0 0 1-41.472-41.472V175.5648a41.472 41.472 0 0 1 41.472-41.472h124.3136v93.184a72.4992 72.4992 0 0 0 144.9984 0V134.144H620.8v93.184a72.4992 72.4992 0 0 0 144.9984 0V134.144h124.3648a41.472 41.472 0 0 1 41.472 41.472v445.0304z" p-id="18264"></path><path d="M912.2304 794.624a32.9728 32.9728 0 0 0-4.1984-2.7648 35.6352 35.6352 0 0 1-16.9472-12.8 34.6112 34.6112 0 0 1-6.5024-20.8384c0-8.192 2.56-15.4624 7.68-21.9136 5.12-6.4 11.3152-10.9056 18.5856-13.4656a13.0048 13.0048 0 0 0 5.4272-4.4032c1.7408-2.2016 2.3552-5.3248 1.8944-9.2672a84.7872 84.7872 0 0 0-5.4272-20.1728 41.3184 41.3184 0 0 0-9.216-14.848 10.6496 10.6496 0 0 0-6.8608-3.1744 10.752 10.752 0 0 0-6.8096 1.3824 45.2096 45.2096 0 0 1-22.7328 4.0448 31.3856 31.3856 0 0 1-20.6848-9.2672 34.816 34.816 0 0 1-10.1376-19.6608 37.2224 37.2224 0 0 1 2.816-21.3504 21.5552 21.5552 0 0 0 1.3824-4.7616 8.0384 8.0384 0 0 0-1.024-6.144 33.7408 33.7408 0 0 0-7.5264-8.3968 44.544 44.544 0 0 0-10.3424-6.2976 68.608 68.608 0 0 0-11.3664-3.84 45.568 45.568 0 0 0-10.6496-1.4336c-2.1504 0-4.1472 1.024-6.144 3.0208a22.8864 22.8864 0 0 0-4.4032 5.7344 36.5568 36.5568 0 0 1-13.312 17.408 36.0448 36.0448 0 0 1-21.6576 6.8096 31.5392 31.5392 0 0 1-20.6336-7.168 41.9328 41.9328 0 0 1-12.5952-16.6912 17.8176 17.8176 0 0 0-3.6864-6.144 9.0624 9.0624 0 0 0-7.168-2.9696 49.5104 49.5104 0 0 0-9.472 1.2288c-3.9424 0.8192-8.0384 2.048-12.2368 3.6864a58.7776 58.7776 0 0 0-11.7248 6.144 20.0704 20.0704 0 0 0-7.5264 8.6016 7.6288 7.6288 0 0 0-0.512 4.864 37.12 37.12 0 0 0 1.2288 4.9152c0.256 1.4336 0.512 3.7376 0.8704 7.0144a56.2688 56.2688 0 0 1-2.4576 22.9888 24.9344 24.9344 0 0 1-6.144 10.2912 35.4816 35.4816 0 0 1-20.0704 9.984 42.24 42.24 0 0 1-21.8624-2.56 31.744 31.744 0 0 0-5.7856-1.4336 8.0896 8.0896 0 0 0-5.4272 1.3824 21.3504 21.3504 0 0 0-6.5024 6.5024 69.9904 69.9904 0 0 0-8.9088 20.48 42.3936 42.3936 0 0 0-1.3824 10.1888c0 2.7648 0.6656 5.5296 2.048 8.192 1.4336 2.7136 3.1744 4.4032 5.2736 5.12 7.0144 2.816 13.312 7.2192 18.944 13.312 5.5808 6.0928 8.3456 13.2096 8.3456 21.3504a32 32 0 0 1-8.3968 21.5552 49.4592 49.4592 0 0 1-18.8928 13.824c-3.9424 1.4336-6.2976 4.7104-6.9632 9.8304a29.3888 29.3888 0 0 0 0.6656 10.752 69.12 69.12 0 0 0 9.984 23.7568 15.36 15.36 0 0 0 7.168 6.5024 14.2336 14.2336 0 0 0 9.8304 0.7168c5.12-1.6384 10.1376-2.56 15.0016-2.816a48.2816 48.2816 0 0 1 13.312 1.2288c4.6592 1.024 8.6528 3.328 11.8784 6.8096a31.8464 31.8464 0 0 1 8.96 19.1488 35.1232 35.1232 0 0 1-2.9696 18.3808 21.2992 21.2992 0 0 0-2.6624 9.2672 10.752 10.752 0 0 0 1.9456 5.7856c1.6384 2.3552 4.096 4.6592 7.3728 7.0144 3.2256 2.3552 6.912 4.4032 11.008 6.144 4.096 1.7408 8.192 3.2256 12.2368 4.352 4.096 1.1776 7.7824 1.792 11.008 1.792a15.6672 15.6672 0 0 0 7.68-1.9456 11.9296 11.9296 0 0 0 5.2736-6.144 42.5984 42.5984 0 0 1 13.4656-18.432 33.1264 33.1264 0 0 1 43.008 0c6.2464 5.3248 10.5984 11.5712 13.1584 18.7904h0.3584c0.7168 1.8944 1.9968 3.584 3.84 5.2736a8.9088 8.9088 0 0 0 5.9392 2.4576 61.7984 61.7984 0 0 0 21.8624-5.2736c3.6352-1.6384 6.9632-3.4304 9.984-5.4272a26.2656 26.2656 0 0 0 6.656-5.7856 13.312 13.312 0 0 0 1.024-14.0288 39.424 39.424 0 0 1-3.072-21.3504 34.5088 34.5088 0 0 1 9.728-19.968 21.1968 21.1968 0 0 1 9.3184-5.9904c3.584-1.1776 7.168-1.9456 10.8032-2.2528a40.704 40.704 0 0 1 10.7008 0.3072c3.4816 0.6144 6.4 1.2288 8.704 1.9456 2.56 0.9216 4.9152 1.4336 7.0144 1.4336a16.896 16.896 0 0 0 7.3728-2.1504 21.504 21.504 0 0 0 7.68-6.9632 61.1328 61.1328 0 0 0 9.472-23.1424 30.5152 30.5152 0 0 0 0.3584-10.1888 15.7696 15.7696 0 0 0-5.2736-8.0384z m-87.1424-7.168a78.848 78.848 0 0 1-16.2304 24.3712 75.1616 75.1616 0 0 1-54.0672 22.4256 75.264 75.264 0 0 1-53.76-22.4256 78.848 78.848 0 0 1-16.2304-24.32 74.24 74.24 0 0 1-5.9392-29.6448c0-10.496 1.9456-20.3776 5.9392-29.5936a76.6464 76.6464 0 0 1 40.448-40.448c9.216-3.9936 19.0464-5.9904 29.5424-5.9904a76.0832 76.0832 0 0 1 70.3488 46.4384c3.9424 9.216 5.9392 19.0976 5.9392 29.5936 0 10.5472-2.048 20.3776-5.9904 29.6448z" p-id="18265"></path></svg>