<?xml version="1.0" standalone="no"?><!DOCTYPE svg PUBLIC "-//W3C//DTD SVG 1.1//EN" "http://www.w3.org/Graphics/SVG/1.1/DTD/svg11.dtd"><svg t="1547120750079" class="icon" style="" viewBox="0 0 1024 1024" version="1.1" xmlns="http://www.w3.org/2000/svg" p-id="18378" xmlns:xlink="http://www.w3.org/1999/xlink" width="200" height="200"><defs><style type="text/css"></style></defs><path d="M869.5808 826.7264c-0.1536 0-0.3072-0.2048-0.512-0.1536-2.7648 1.2288-5.632 2.2016-8.4992 3.328l-0.1024-0.0512a352.9728 352.9728 0 0 1-9.1136 3.3792l-0.2048 0.0512c-2.9696 1.0752-5.9392 2.0992-9.0112 3.072l-1.024 0.3584c-2.9696 1.024-5.9904 1.9456-9.0624 2.8672l-0.9216 0.256a395.8784 395.8784 0 0 1-19.3536 5.2224l-0.9216 0.256c-3.1744 0.768-6.4 1.536-9.6256 2.2016l-1.4336 0.3072a507.5456 507.5456 0 0 1-31.488 5.632l-1.6384 0.2048a487.936 487.936 0 0 1-10.0352 1.3312l-1.7408 0.1536a460.544 460.544 0 0 1-10.4448 1.1264l-0.8192 0.0512-10.3424 0.8704c-0.4096 0-0.8192 0-1.28 0.1024l-10.496 0.5632-2.048 0.1024h-0.7168c-7.0656 42.8032-44.8512 80.896-101.632 108.1344a508.5696 508.5696 0 0 0 78.9504 6.0928c152.4736 0 276.0704-65.4336 276.0704-146.176v-96.768h-1.6896c-8.192 40.448-45.7728 73.1648-100.864 97.4848z m102.4512-343.6544c0.1024-1.2288 0.1024-2.5088 0.1024-3.7888 0-76.4416-110.848-139.1616-252.16-145.6128v291.2768c13.1072-0.6144 25.9072-1.6896 38.4-3.2256 120.2688-14.6944 210.432-70.9632 213.6576-138.6496z" p-id="18379"></path><path d="M869.5808 653.8752c-0.1536 0-0.3072-0.256-0.512-0.2048-2.7648 1.1776-5.632 2.1504-8.4992 3.328l-0.1024-0.1024a342.272 342.272 0 0 1-9.1136 3.3792l-0.2048 0.0512c-2.9696 1.0752-5.9392 2.0992-9.0112 3.072l-1.024 0.3584c-2.9696 1.024-5.9904 1.9456-9.0624 2.8672l-0.9216 0.256a399.2576 399.2576 0 0 1-41.1136 9.984l-1.024 0.2048a443.1872 443.1872 0 0 1-32.3584 4.9664l-1.7408 0.2048-10.4448 1.0752-0.8192 0.0512a522.8544 522.8544 0 0 1-22.1184 1.536l-1.536 0.1024v113.664c141.312-6.4 252.16-69.12 252.16-145.6128v-96.8192h-1.6896c-8.192 40.448-45.7728 74.752-100.864 97.6384z m-504.832-73.728c172.8 0 312.8832-74.1888 312.8832-165.632V304.0768h-1.8944c-9.3184 45.9776-51.9168 84.6336-114.3296 110.4384-0.1536 0-0.3584 0.1536-0.512 0.2048a375.1936 375.1936 0 0 1-9.728 3.9936h-0.0512a393.0112 393.0112 0 0 1-10.3424 3.8912l-0.256 0.1024a448.6144 448.6144 0 0 1-10.1888 3.5328l-1.1776 0.3584a426.2912 426.2912 0 0 1-10.24 3.2256l-1.024 0.3072c-7.3216 2.1504-14.592 4.1472-22.016 5.9392l-1.024 0.256a461.312 461.312 0 0 1-23.552 5.12l-1.1776 0.2048a476.3648 476.3648 0 0 1-23.5008 3.9424l-1.792 0.256a565.248 565.248 0 0 1-25.2416 2.9184l-0.8704 0.1024a558.1824 558.1824 0 0 1-25.088 1.7408l-2.304 0.1024c-3.9424 0.2048-7.936 0.3072-11.9296 0.4096l-1.9968 0.0512a618.6496 618.6496 0 0 1-25.2928 0h-1.9968a546.7136 546.7136 0 0 1-11.9296-0.4608l-2.2528-0.1024a597.9136 597.9136 0 0 1-11.9296-0.7168L322.56 449.792a553.984 553.984 0 0 1-11.776-0.9216l-0.8704-0.1024a517.888 517.888 0 0 1-11.8272-1.2288l-1.9456-0.256a573.5424 573.5424 0 0 1-11.4176-1.4336l-1.8432-0.256a574.5664 574.5664 0 0 1-35.6864-6.4l-1.6384-0.3584a467.2 467.2 0 0 1-10.9056-2.4576l-1.024-0.3072a468.736 468.736 0 0 1-22.016-5.9392l-1.024-0.3072a445.0304 445.0304 0 0 1-21.6064-7.1168l-0.256-0.1024a433.7664 433.7664 0 0 1-20.1216-7.8848c-0.1536-0.0512-0.3584-0.2048-0.512-0.2048-62.4128-25.8048-104.96-64.4096-114.2784-110.4384h-1.9456v110.4384c0 91.4432 140.0832 165.632 312.8832 165.632z" p-id="18380"></path><path d="M364.7488 776.192c172.8 0 312.8832-74.1888 312.8832-165.6832V499.2h-1.8944c-9.3184 47.872-51.9168 83.7632-114.3296 111.36-0.1536 0-0.3584 0.1536-0.512 0.256a400.3328 400.3328 0 0 1-20.1216 7.8848l-0.256 0.1024a434.5856 434.5856 0 0 1-10.1888 3.4816l-1.1776 0.4096a439.9616 439.9616 0 0 1-10.24 3.2256l-1.024 0.3072c-7.3216 2.1504-14.592 4.096-22.016 5.9392l-1.024 0.256a489.2672 489.2672 0 0 1-23.6032 5.12l-1.1264 0.2048-11.52 2.048-0.3584 0.0512a525.4144 525.4144 0 0 1-24.832 3.5328l-1.9456 0.2048a489.2672 489.2672 0 0 1-11.8784 1.2288l-0.8704 0.1024-11.776 0.9728-1.4336 0.1024c-3.9424 0.256-7.936 0.512-11.9296 0.6656l-2.2528 0.1024a610.816 610.816 0 0 1-11.9296 0.4096l-1.9968 0.0512a579.2768 579.2768 0 0 1-25.2928 0h-1.9968a586.24 586.24 0 0 1-11.9296-0.4608l-2.2528-0.1024a577.5872 577.5872 0 0 1-11.9296-0.6656l-1.4336-0.1024a574.1568 574.1568 0 0 1-11.776-0.9728l-0.8704-0.1024a489.728 489.728 0 0 1-11.8272-1.2288l-1.9456-0.2048-11.4176-1.4848-1.792-0.256c-3.9424-0.512-7.8336-1.1264-11.6736-1.792l-0.3584-0.0512-11.52-2.048-1.1264-0.2048a485.2224 485.2224 0 0 1-46.592-11.3152l-1.024-0.3072a500.0704 500.0704 0 0 1-21.6576-7.168l-0.256-0.0512a409.4976 409.4976 0 0 1-10.4448-3.9424c-3.2768-1.28-6.4512-2.1504-9.6256-3.4816-0.2048-0.1024-0.3584-0.7168-0.512-0.7168-62.464-27.5968-105.0624-63.488-114.3296-111.36h-1.9456v111.36c0 91.4944 140.0832 165.632 312.8832 165.632z" p-id="18381"></path><path d="M677.632 806.5536V694.272h-1.8944c-9.3184 46.0288-51.9168 84.6336-114.3296 112.2816-0.1536 0-0.3584 0.1536-0.512 0.2048a355.1744 355.1744 0 0 1-9.728 3.9424l-0.0512 0.1024a403.8144 403.8144 0 0 1-10.3424 3.84l-0.256 0.1024a448.6144 448.6144 0 0 1-10.1888 3.5328l-1.1776 0.3584a470.1696 470.1696 0 0 1-10.24 3.2256l-1.024 0.3072c-7.3216 2.1504-14.592 4.1472-22.016 5.9392l-1.024 0.256-10.8544 2.56-1.6384 0.3072-11.1104 2.2528-1.1264 0.2048a507.2384 507.2384 0 0 1-23.5008 3.8912l-1.792 0.3072c-3.7888 0.512-7.5776 1.024-11.4176 1.4336l-1.9456 0.2048a534.528 534.528 0 0 1-11.8784 1.28l-0.8704 0.0512a650.752 650.752 0 0 1-25.088 1.7408l-2.304 0.1536a610.816 610.816 0 0 1-39.2192 0.4096h-1.9968a586.5472 586.5472 0 0 1-11.9296-0.4096l-2.2528-0.1536a598.016 598.016 0 0 1-11.9296-0.6656l-1.4336-0.1024a672.4608 672.4608 0 0 1-11.776-0.9728l-0.8704-0.0512a535.04 535.04 0 0 1-11.8272-1.28l-1.9456-0.2048a481.9456 481.9456 0 0 1-11.4176-1.4848l-1.8432-0.256a574.464 574.464 0 0 1-11.6224-1.7408l-0.3584-0.1024c-3.84-0.6144-7.68-1.3312-11.52-2.048l-1.1264-0.2048a523.1104 523.1104 0 0 1-11.0592-2.2528l-1.6384-0.3584a482.7136 482.7136 0 0 1-10.9056-2.5088l-1.024-0.256a465.152 465.152 0 0 1-22.016-5.9392l-1.024-0.3072a493.056 493.056 0 0 1-32.256-11.1104 397.312 397.312 0 0 1-9.728-3.9936c-0.1536-0.0512-0.3584-0.2048-0.512-0.2048-62.4128-27.648-104.96-66.2528-114.2784-112.2816h-1.9456v112.2816c0 91.4944 140.0832 165.632 312.8832 165.632 172.8 0 312.8832-74.1376 312.8832-165.632z m-383.488-427.5712a582.1952 582.1952 0 0 0 141.312 0c136.192-16.6912 238.4384-80.384 242.0736-157.184 0.1024-1.3824 0.1024-2.816 0.1024-4.2496 0-91.4944-140.0832-165.632-312.832-165.632-172.8512 0-312.9344 74.1376-312.9344 165.632 0 1.4336 0 2.8672 0.1024 4.3008 3.6864 76.6976 105.8816 140.4416 242.176 157.1328z" p-id="18382"></path></svg>