<?xml version="1.0" encoding="UTF-8"?>
<svg width="20px" height="20px" viewBox="0 0 20 20" version="1.1" xmlns="http://www.w3.org/2000/svg" xmlns:xlink="http://www.w3.org/1999/xlink">
    <!-- Generator: Sketch 52.4 (67378) - http://www.bohemiancoding.com/sketch -->
    <title>日志设置</title>
    <desc>Created with Sketch.</desc>
    <g id="日志设置" stroke="none" stroke-width="1" fill-rule="evenodd">
        <g id="新建事件_画板-1-copy" transform="translate(2.000000, 1.000000)">
            <path d="M11.5410704,0 C11.8763892,0 12.1486282,0.272239046 12.1486282,0.607557854 L12.1486282,3.44116786 C12.1486282,3.77648668 11.8763892,4.04872571 11.5410704,4.04872571 C11.2057516,4.04872571 10.9335125,3.77648667 10.9335125,3.44116786 L10.9335125,0.607557854 C10.9351725,0.272239046 11.2057515,0 11.5410704,0 Z M4.66205463,0 C4.99737346,0 5.26961249,0.272239046 5.2696125,0.607557854 L5.2696125,3.44116786 C5.2696125,3.77648668 4.99737346,4.04872571 4.66205463,4.04872571 C4.32673581,4.04872571 4.05449678,3.77648667 4.05449678,3.44116786 L4.05449678,0.607557854 C4.05449678,0.272239029 4.32673583,0 4.66205463,0 Z M3.04190036,12.5462357 C2.70658154,12.5462357 2.43434251,12.8184748 2.43434251,13.1537936 C2.43434251,13.4891124 2.70658155,13.7613514 3.04190036,13.7613514 L7.49400465,13.7613514 C7.82932347,13.7613514 8.1015625,13.4891124 8.1015625,13.1537936 C8.1015625,12.8184748 7.82932345,12.5462357 7.49400465,12.5462357 L3.04190036,12.5462357 Z M2.80459115,9.71262572 C2.60024627,9.71262572 2.43434251,9.98486477 2.43434251,10.3201836 C2.43434251,10.6555024 2.60024628,10.9277414 2.80459115,10.9277414 L8.97034386,10.9277414 C9.17468875,10.9277414 9.34059251,10.6555024 9.34059251,10.3201836 C9.34059251,9.98486477 9.17468874,9.71262572 8.97034386,9.71262572 L2.80459115,9.71262572 Z M3.04190036,6.88067571 C2.70658154,6.88067571 2.43434251,7.15291475 2.43434251,7.48823358 C2.43434251,7.8235524 2.70658155,8.09579143 3.04190036,8.09579143 L10.3276147,8.09579143 C10.6629335,8.09579143 10.9351725,7.82355239 10.9351725,7.48823358 C10.9351725,7.15291475 10.6629335,6.88067572 10.3276147,6.88067571 L3.04190036,6.88067571 Z M16.1956939,11.1212649 C15.3965889,10.168357 14.1971722,9.5625 12.85625,9.5625 C10.4503596,9.5625 8.5,11.5128596 8.5,13.91875 C8.5,15.1221613 8.98796776,16.2116015 9.77683244,17 L0.815848212,17 C0.369309793,17 0.00577106836,16.6381213 0.00577106836,16.1899229 L0.00577106836,2.42857142 C0.00577106836,1.982033 0.367649786,1.61849428 0.815848212,1.61849428 L3.24441964,1.61849428 L3.24441964,3.43950787 C3.24441964,4.22136511 3.8785374,4.85548287 4.66039464,4.85548286 C5.44225189,4.85548286 6.07636965,4.22136509 6.07636965,3.43950787 L6.07636965,1.61849428 L6.07802964,1.61849428 L10.1250954,1.61849428 L10.1250954,3.43950787 C10.1250954,4.22136511 10.7592131,4.85548287 11.5410704,4.85548286 C12.3229276,4.85548284 12.9570454,4.22136509 12.9570454,3.43950787 L12.9570454,1.61849428 L15.3856168,1.61849428 C15.8321552,1.61849428 16.1956939,1.980373 16.1956939,2.42857142 L16.1956939,11.1212649 Z" id="Shape" fill-rule="nonzero"></path>
            <g id="设置-copy" transform="translate(9.562500, 10.625000)">
                <path d="M6.25457227,3.89586496 C6.23181152,3.87765778 6.20446164,3.85935812 6.17260086,3.84110826 C6.03591546,3.79090513 5.92540597,3.70765304 5.84115778,3.59131641 C5.75685979,3.47492997 5.71471791,3.33920508 5.71471791,3.18408482 C5.71471791,3.02432561 5.76482854,2.88177037 5.86505692,2.7562839 C5.9652853,2.63084012 6.08599051,2.54294908 6.22727218,2.49274595 C6.26372921,2.47909235 6.29904785,2.45055427 6.33318541,2.40722419 C6.36736565,2.36389411 6.37988797,2.30340276 6.37082352,2.22584263 C6.35257366,2.09352581 6.31725502,1.96230469 6.26486049,1.83226465 C6.21247307,1.70222461 6.15211691,1.60527623 6.08375642,1.5413697 C6.04729939,1.50486286 6.0028736,1.48433622 5.95048619,1.47978976 C5.89809877,1.47523619 5.85367299,1.48434333 5.81725865,1.50714676 C5.68053055,1.57105329 5.53246833,1.59731459 5.37302218,1.58588797 C5.21353334,1.57446136 5.07912472,1.51401981 4.96979632,1.40450642 C4.86046791,1.29499302 4.79437709,1.16718708 4.77157366,1.02121666 C4.74881292,0.875203544 4.76702009,0.736013672 4.82628055,0.603696847 C4.83538058,0.585446987 4.84448772,0.554632115 4.85358775,0.511302037 C4.86268778,0.467971959 4.85586454,0.428007254 4.83310379,0.391507533 C4.79664676,0.332197266 4.74766741,0.277447684 4.68617997,0.227237444 C4.62464272,0.177077009 4.55746331,0.135981027 4.48454213,0.104070452 C4.41162807,0.0721171875 4.3376183,0.0469942801 4.26242746,0.0287444196 C4.1872793,0.0105372489 4.11778041,0.00138741629 4.05400907,0.00138741629 C4.01299847,0.00138741629 3.97312626,0.0207756696 3.93439244,0.0595592913 C3.89565862,0.0983429129 3.86721303,0.135981027 3.84895605,0.172480748 C3.79884542,0.309393834 3.71227065,0.42231529 3.58924595,0.511302037 C3.46626395,0.600288783 3.32498228,0.644757254 3.16553613,0.644757254 C3.01064355,0.644757254 2.87623493,0.597969308 2.76231027,0.504478795 C2.64842829,0.410895787 2.56640709,0.302527902 2.51629646,0.17936091 C2.50264286,0.138257813 2.47874372,0.0983429129 2.44452079,0.0595664063 C2.41038323,0.0207898996 2.36368778,0.00139453125 2.3044202,0.00139453125 C2.25890583,0.00139453125 2.19736858,0.00936328125 2.11994364,0.025336356 C2.042476,0.0413094308 1.96273158,0.0652512556 1.88076018,0.0972045201 C1.79869629,0.129157785 1.72240974,0.169072684 1.65177246,0.216999023 C1.58117787,0.264882673 1.53220564,0.320777762 1.50484863,0.384677176 C1.49119503,0.41203418 1.48777985,0.443987444 1.49461021,0.480487165 C1.50139076,0.516994001 1.5094022,0.548940151 1.51850935,0.576297154 C1.52310561,0.603696847 1.52874777,0.649303711 1.53562081,0.71321024 C1.54245117,0.777116769 1.54245117,0.84780385 1.53562081,0.925406669 C1.52874777,1.0029668 1.51281738,1.08166532 1.48778697,1.16154492 C1.46270675,1.24138184 1.42283454,1.30869643 1.36817034,1.36341044 C1.25428836,1.47296652 1.12325223,1.53796164 0.975190011,1.55848828 C0.82717048,1.57901493 0.684750419,1.56190346 0.548072126,1.50714676 C0.507061523,1.49349316 0.469466099,1.48434333 0.435328544,1.47978976 C0.401148298,1.47523619 0.36582966,1.48434333 0.329365513,1.50714676 C0.283801339,1.53454646 0.241659459,1.57673814 0.202968331,1.63377162 C0.164234515,1.6908478 0.130054269,1.75356613 0.10042048,1.82202623 C0.0708364955,1.89043652 0.0468946708,1.96116629 0.0286875,2.03417285 C0.0104803292,2.10717941 0.00133049665,2.17340541 0.00133049665,2.23266588 C0.00133049665,2.28742257 0.014984096,2.34108357 0.0423410993,2.39352079 C0.069648298,2.4460007 0.103878348,2.47909235 0.144839146,2.49274595 C0.281524554,2.54754534 0.404549247,2.63421261 0.513927455,2.75286872 C0.623255859,2.87153195 0.677920061,3.01067201 0.677920061,3.17038853 C0.677920061,3.32550879 0.623255859,3.46582994 0.513927455,3.59131641 C0.404556362,3.71676018 0.281524554,3.80692801 0.144839146,3.86163491 C0.0673715123,3.8890346 0.0218073382,3.95294113 0.00815373884,4.05330469 C-0.000946289063,4.10806138 0.00360016741,4.17765276 0.0218073382,4.26208594 C0.0400571987,4.34646931 0.0662331194,4.4286257 0.100413365,4.50846261 C0.13459361,4.58829953 0.173327427,4.66130608 0.216614816,4.72748228 C0.259902204,4.7936656 0.306597656,4.83585728 0.356715402,4.85410714 C0.420529436,4.88150684 0.484293666,4.88606041 0.548065011,4.86781055 C0.648293387,4.83590709 0.746237863,4.81765011 0.841962472,4.81305385 C0.923983677,4.80850028 1.01050865,4.81646903 1.10162988,4.83699568 C1.19275112,4.85752232 1.27021875,4.9020406 1.33399009,4.97045089 C1.43881473,5.08451074 1.49689411,5.20890862 1.50827093,5.34350223 C1.51969754,5.47809584 1.50030218,5.59789035 1.45019155,5.70285017 C1.41373451,5.78045299 1.39666574,5.84090165 1.39894252,5.88423172 C1.40121931,5.9275618 1.41373451,5.96520703 1.43649526,5.99715318 C1.46839872,6.04280273 1.51628237,6.0884096 1.58005371,6.13406627 C1.64381794,6.17967313 1.71560073,6.21958803 1.79529534,6.25381808 C1.87503976,6.28804813 1.95478418,6.31653641 2.0345286,6.33938965 C2.11423033,6.36219308 2.186006,6.3736197 2.24977023,6.3736197 C2.30443443,6.3736197 2.35459487,6.36105469 2.40015193,6.33593178 C2.4457161,6.31085156 2.47989634,6.27093666 2.50264997,6.21617997 C2.5527606,6.07931669 2.64047377,5.95951507 2.76577525,5.85683203 C2.89108384,5.75419169 3.03117732,5.70285017 3.18606989,5.70285017 C3.34555873,5.70285017 3.4856522,5.75419169 3.60636454,5.85683203 C3.72711956,5.95951507 3.81250614,6.08158636 3.86266657,6.22301032 L3.86949693,6.22301032 C3.88315053,6.25955985 3.90823075,6.29374009 3.94468778,6.32569336 C3.98110212,6.35764662 4.01983594,6.3736197 4.06084654,6.3736197 C4.12006431,6.3736197 4.1884248,6.36446987 4.26584975,6.34622001 C4.34331738,6.32801283 4.41736984,6.30288993 4.48796443,6.27093666 C4.5586017,6.2389834 4.62351144,6.20366476 4.6827719,6.16488114 C4.74198968,6.12605483 4.78526995,6.08841671 4.81262695,6.05190988 C4.87184473,5.96065346 4.87866797,5.86938993 4.83311091,5.77813351 C4.77385045,5.64581669 4.75336649,5.50663393 4.77157366,5.3606137 C4.78982352,5.21460059 4.85359487,5.08456055 4.96296596,4.9705007 C5.01307659,4.915744 5.07343276,4.87691769 5.14407003,4.85411426 C5.21470731,4.83131083 5.28530901,4.81647614 5.35594629,4.80964579 C5.42654088,4.80277274 5.49604687,4.80509222 5.56436468,4.81647614 C5.63268248,4.82790276 5.68967327,4.84046066 5.73523033,4.85411426 C5.78534096,4.87236412 5.83090513,4.88151395 5.87186593,4.88151395 C5.91291922,4.88151395 5.96076018,4.86786035 6.01542439,4.84046066 C6.07008859,4.81306097 6.12019922,4.7674541 6.16576339,4.70354757 C6.21132757,4.63969085 6.25006138,4.56782268 6.28192215,4.48793597 C6.31382561,4.40809905 6.33662905,4.32940765 6.35028976,4.25179771 C6.36399316,4.17423758 6.36626283,4.10806138 6.35712012,4.05330469 C6.33891295,3.98944085 6.3047327,3.93696094 6.25457227,3.89586496 Z M4.55291685,3.7555865 C4.47544922,3.93582966 4.36953599,4.09440778 4.23512737,4.23127107 C4.10071875,4.36813435 3.94241811,4.47542076 3.76012584,4.55298089 C3.57792606,4.63054102 3.38425698,4.66931752 3.17925377,4.66931752 C2.97420787,4.66931752 2.78171987,4.63054102 2.60174707,4.55298089 C2.42177427,4.47537807 2.26461203,4.36814146 2.1302034,4.23127107 C1.99579478,4.09440778 1.88983175,3.93582966 1.81241392,3.7555865 C1.73494629,3.57534333 1.69621247,3.38253516 1.69621247,3.17721889 C1.69621247,2.97189551 1.73498898,2.77909445 1.81241392,2.59889397 C1.88983887,2.41860812 1.99579478,2.26121108 2.1302034,2.12662458 C2.26461203,1.99198828 2.42177427,1.88593987 2.60174707,1.80832994 C2.78171987,1.73076981 2.97420075,1.6919933 3.17925377,1.6919933 C3.38425698,1.6919933 3.57792606,1.73076981 3.76012584,1.80832994 C3.94241811,1.88593276 4.10071875,1.99198828 4.23512737,2.12662458 C4.36953599,2.26121819 4.47544922,2.41860812 4.55291685,2.59889397 C4.63038449,2.77909445 4.66907561,2.97189551 4.66907561,3.17721889 C4.6690685,3.38253516 4.63038449,3.57534333 4.55291685,3.7555865 Z" id="Shape"></path>
            </g>
        </g>
    </g>
</svg>