<?xml version="1.0" encoding="UTF-8"?>
<svg width="20px" height="20px" viewBox="0 0 20 20" version="1.1" xmlns="http://www.w3.org/2000/svg" xmlns:xlink="http://www.w3.org/1999/xlink">
    <!-- Generator: Sketch 52.4 (67378) - http://www.bohemiancoding.com/sketch -->
    <title>日志操作</title>
    <desc>Created with Sketch.</desc>
    <g id="日志操作" stroke="none" stroke-width="1" fill-rule="evenodd">
        <g id="新建事件_画板-1-copy" transform="translate(2.000000, 1.000000)"  fill-rule="nonzero">
            <path d="M11.5410704,0 C11.8763892,0 12.1486282,0.272239046 12.1486282,0.607557854 L12.1486282,3.44116786 C12.1486282,3.77648668 11.8763892,4.04872571 11.5410704,4.04872571 C11.2057516,4.04872571 10.9335125,3.77648667 10.9335125,3.44116786 L10.9335125,0.607557854 C10.9351725,0.272239046 11.2057515,0 11.5410704,0 Z M4.66205463,0 C4.99737346,0 5.26961249,0.272239046 5.2696125,0.607557854 L5.2696125,3.44116786 C5.2696125,3.77648668 4.99737346,4.04872571 4.66205463,4.04872571 C4.32673581,4.04872571 4.05449678,3.77648667 4.05449678,3.44116786 L4.05449678,0.607557854 C4.05449678,0.272239029 4.32673583,0 4.66205463,0 Z M2.48312694,13 C2.46116573,13 2,13 2,13.5 C2,14 2.48312694,14 2.48312694,14 L13.4032031,14 C13.4032031,14 14,14 14,13.5 C14,13 13.446941,13 13.4032031,13 L2.48312694,13 Z M2.48312694,10 C2.48312694,10 2,10 2,10.5 C2,11 2.48312694,11 2.48312694,11 L13.5,11 C13.5,11 14,11 14,10.5 C14,10 13.5,10 13.5,10 L2.48312694,10 Z M2.52704757,7 C2.52704757,7 2,7 2,7.50000001 C2,8 2.52704757,8 2.52704757,8 L13.142355,8 C13.6157001,8 14,7.77595628 14,7.50000001 C14,7.22404372 13.6157,7.00000001 13.142355,7 L2.52704757,7 Z M6.07802964,1.61849428 L10.1250954,1.61849428 L10.1250954,3.43950787 C10.1250954,4.22136511 10.7592131,4.85548287 11.5410704,4.85548286 C12.3229276,4.85548284 12.9570454,4.22136509 12.9570454,3.43950787 L12.9570454,1.61849428 L15.3856168,1.61849428 C15.8321552,1.61849428 16.1956939,1.980373 16.1956939,2.42857142 L16.1956939,16.1899229 C16.1956939,16.6364613 15.8338152,17 15.3856168,17 L0.815848212,17 C0.369309793,17 0.00577106836,16.6381213 0.00577106836,16.1899229 L0.00577106836,2.42857142 C0.00577106836,1.982033 0.367649786,1.61849428 0.815848212,1.61849428 L3.24441964,1.61849428 L3.24441964,3.43950787 C3.24441964,4.22136511 3.8785374,4.85548287 4.66039464,4.85548286 C5.44225189,4.85548286 6.07636965,4.22136509 6.07636965,3.43950787 L6.07636965,1.61849428 L6.07802964,1.61849428 Z" id="Shape"></path>
        </g>
        <circle id="椭圆形" fill-rule="nonzero" cx="15" cy="8.5" r="1"></circle>
        <circle id="椭圆形-copy" fill-rule="nonzero" cx="6" cy="11.5" r="1"></circle>
        <circle id="椭圆形-copy-2" fill-rule="nonzero" cx="11" cy="14.5" r="1"></circle>
    </g>
</svg>