<?xml version="1.0" encoding="UTF-8"?>
<svg width="20px" height="20px" viewBox="0 0 20 20" version="1.1" xmlns="http://www.w3.org/2000/svg" xmlns:xlink="http://www.w3.org/1999/xlink">
    <!-- Generator: Sketch 52.4 (67378) - http://www.bohemiancoding.com/sketch -->
    <title>蜜罐</title>
    <desc>Created with Sketch.</desc>
    <g id="蜜罐" stroke="none" stroke-width="1" fill-rule="evenodd">
        <g id="Group-7" transform="translate(-3.000000, 1.000000)"  fill-rule="nonzero">
            <path d="M4.65616787,13.3767242 L6.79156279,12.5237074 C7.92049534,14.7201221 10.2163308,16.2235905 12.8649,16.2235905 C16.6303554,16.2235905 19.6828601,13.1847588 19.6828601,9.43617 C19.6828601,5.68758115 16.6303554,2.64874947 12.8649,2.64874947 C10.1005237,2.64874947 7.72040177,4.28656868 6.65023797,6.64064976 L4.65616787,5.87975202 L4.65616787,4.718085 L12.8649,0 L21.0736322,4.718085 L21.0736322,14.154255 L12.8649,18.87234 L4.65616787,14.154255 L4.65616787,13.3767242 Z" id="Combined-Shape"></path>
            <path d="M8.09284346,12.0038906 L9.49159566,11.4451372 C10.1645266,12.6184255 11.4332928,13.4092942 12.8876075,13.4092942 C15.0458563,13.4092942 16.7954627,11.6675248 16.7954627,9.51894342 C16.7954627,7.37036201 15.0458563,5.62859263 12.8876075,5.62859263 C11.3886538,5.62859263 10.0868138,6.46875663 9.43132637,7.70185813 L8.02614387,7.16566826 C8.90310176,5.3735582 10.7504941,4.13867105 12.8876075,4.13867105 C15.8724197,4.13867105 18.2920881,6.54750104 18.2920881,9.51894342 C18.2920881,12.4903858 15.8724197,14.8992158 12.8876075,14.8992158 C10.8032431,14.8992158 8.99447432,13.7245362 8.09284346,12.0038906 Z" id="Combined-Shape"></path>
            <polygon id="Path-Copy-3" transform="translate(6.220582, 9.947209) rotate(219.000000) translate(-6.220582, -9.947209) " points="1.73487296 14.1390869 6.42519632 5.75533044 7.41104634 9.39162309 10.7062909 11.2043258"></polygon>
        </g>
    </g>
</svg>