<?xml version="1.0" encoding="UTF-8"?>
<svg width="20px" height="20px" viewBox="0 0 20 20" version="1.1" xmlns="http://www.w3.org/2000/svg" xmlns:xlink="http://www.w3.org/1999/xlink">
    <!-- Generator: Sketch 52.4 (67378) - http://www.bohemiancoding.com/sketch -->
    <title>数据恢复</title>
    <desc>Created with Sketch.</desc>
    <g id="数据恢复" stroke="none" stroke-width="1" fill-rule="evenodd">
        <g transform="translate(3.000000, 1.000000)" >
            <g id="刷新" opacity="0.98593285" transform="translate(11.107505, 15.088164) rotate(49.000000) translate(-11.107505, -15.088164) translate(7.107505, 11.588164)">
                <path d="M6.94241412,4.13568419 L5.96109505,3.94174382 C5.9866596,3.79835586 6,3.65073584 6,3.5 C6,2.11928813 4.88071187,1 3.5,1 C2.11928813,1 1,2.11928813 1,3.5 C1,4.88071187 2.11928813,6 3.5,6 C3.51531479,6 3.53059743,5.99986229 3.54584672,5.99958805 L3.58810104,6.99891281 C3.55882183,6.99963619 3.5294534,7 3.5,7 C1.56700338,7 -4.54747351e-13,5.43299662 -4.54747351e-13,3.5 C-4.54747351e-13,1.56700338 1.56700338,0 3.5,0 C5.43299662,0 7,1.56700338 7,3.5 C7,3.71707745 6.98023771,3.92953917 6.94241412,4.13568419 Z" id="合并形状" fill-rule="nonzero"></path>
                <circle id="椭圆形" fill-rule="nonzero" cx="3.5" cy="6.5" r="1"></circle>
                <polygon id="Triangle-3" transform="translate(6.347918, 4.190476) scale(1, -1) translate(-6.347918, -4.190476) " points="6.47619048 3.42857143 7.80952381 4.95238095 4.88631255 4.81063122"></polygon>
            </g>
            <path d="M6.01272923,14.1589641 C2.68901216,14.1275112 0.0128902178,12.6912898 0.0128332149,10.9242249 L0.0128332149,8.74945337 L0.050590666,8.74945337 C0.23222993,9.68416646 1.06410439,10.3849563 2.28312243,10.9241673 C2.28652349,10.9239943 2.29009747,10.9362151 2.29355617,10.9377138 C2.35558216,10.9640576 2.41841516,10.9810052 2.48234343,11.0061384 C2.54991742,11.0326177 2.6178487,11.058176 2.68611838,11.0828062 C2.68779008,11.0834979 2.68940415,11.0840167 2.69113349,11.0847661 C2.76472957,11.111193 2.83869545,11.1365786 2.91300896,11.1609151 C2.97963017,11.1826166 3.04648298,11.2036006 3.11355578,11.2238634 L3.1339621,11.2299161 C3.27588712,11.2720658 3.41883267,11.3106998 3.56266767,11.3457825 C3.64018467,11.3648518 3.71795476,11.3828771 3.79595685,11.3998535 C3.87854163,11.4180048 3.96136564,11.43505 4.04440663,11.4509846 L4.06619644,11.4549044 C4.14110074,11.4691035 4.21615902,11.482478 4.29135765,11.4950253 L4.29833269,11.4962359 C4.37332881,11.5085719 4.44930488,11.5201585 4.52556915,11.5310534 C4.53732873,11.5327251 4.548973,11.5344545 4.56073257,11.5360685 C4.63446048,11.546387 4.70888014,11.5559561 4.78376094,11.564891 C4.79638519,11.5662169 4.8091247,11.5678309 4.8218066,11.5692144 C4.89881514,11.5782412 4.97593058,11.5863313 5.05313584,11.5934829 C5.058958,11.5940017 5.06478014,11.5945782 5.07060228,11.5949817 C5.14697362,11.6019913 5.22341486,11.6082173 5.29991393,11.6136587 L5.32827525,11.6157339 C5.40546185,11.6209796 5.48299432,11.6255335 5.56110326,11.6292228 L5.6052593,11.631298 C5.68297371,11.6347803 5.76072159,11.6374705 5.83849082,11.6393683 C5.85128801,11.6397718 5.86425813,11.6398295 5.8771706,11.6401177 C5.95908408,11.6419047 6.04134345,11.6430576 6.12412162,11.6430576 C6.20701506,11.6430576 6.28915914,11.6419047 6.37113027,11.6401177 C6.38398511,11.6399447 6.39695522,11.6397718 6.40986769,11.6393683 C6.48763599,11.6374387 6.56538355,11.6347485 6.64309923,11.631298 L6.68725526,11.6292228 C6.76530653,11.6255335 6.8429543,11.6210372 6.9201409,11.6157339 L6.94855988,11.6136587 C6.98384856,11.6111418 7.01906419,11.6084667 7.05419556,11.6056333 C6.46478205,12.306611 6.08533538,13.1900125 6.01272923,14.1589641 Z M11.362075,10.0824883 C11.8057922,9.69994187 12.0985522,9.25946916 12.1976526,8.74933809 L12.23541,8.74933809 L12.23541,10.3468207 C11.9573568,10.2304997 11.6651438,10.1412875 11.362075,10.0824883 Z M7.55126265,17.8993487 C7.09339723,17.9573334 6.61550722,17.9880387 6.12406398,17.9880387 C2.74889373,17.9880387 0.0127755574,16.539536 0.0127755574,14.7526575 L0.0127755574,12.5598431 L0.0505330085,12.5598431 C0.232114653,13.4586433 1.06404677,14.2134465 2.28318009,14.7526575 L2.2828342,14.7526575 C2.2862929,14.7526575 2.29003983,14.7555397 2.29349853,14.7569808 C2.35608476,14.7836707 2.41901929,14.8095363 2.48228579,14.834571 C2.54986939,14.8610438 2.61780031,14.8866212 2.68606072,14.9112964 C2.75381523,14.9355786 2.82186047,14.9590418 2.89018155,14.9816809 C2.96431277,15.0060847 3.03873791,15.0295863 3.11344049,15.0521807 L3.1338468,15.0581758 C3.2757621,15.1003618 3.41868744,15.1390723 3.56249474,15.1742727 L3.58324694,15.1792878 C3.65395903,15.1964216 3.72486709,15.2127362 3.79595685,15.2282284 C3.80650588,15.2305342 3.81699726,15.2326671 3.82754629,15.2350882 C3.89965236,15.250589 3.97192416,15.2653085 4.044349,15.2792442 L4.06613878,15.283337 C4.14061608,15.2973447 4.21561218,15.3107183 4.29130001,15.323285 C4.29360581,15.3237461 4.29585396,15.3242073 4.29827505,15.3245531 C4.37327113,15.3369468 4.44907427,15.3484182 4.5253962,15.3594284 C4.53715579,15.3610424 4.54880007,15.3628294 4.56055964,15.3643282 C4.634785,15.3748234 4.70913309,15.3844316 4.78358799,15.3931507 C4.79621225,15.3947071 4.80889413,15.3960329 4.82157603,15.397474 C4.89859315,15.4064407 4.97570767,15.4145499 5.05290527,15.4218002 C5.05872739,15.422319 5.06454953,15.4226649 5.07042933,15.4233566 C5.14681072,15.4302324 5.22325088,15.4364391 5.299741,15.4419759 C5.30919477,15.4426677 5.3185909,15.4434171 5.32804467,15.4439935 C5.40562639,15.4492649 5.48325881,15.4537614 5.56093032,15.4574824 L5.60514401,15.4596729 C5.68244591,15.4631316 5.76026661,15.465841 5.83843318,15.4677432 L5.8771706,15.4684926 C5.95281742,15.4701429 6.02875924,15.4713016 6.10513222,15.4714692 C6.3164418,16.4317588 6.83446508,17.2770318 7.55126265,17.8993487 Z M6.12412162,10.3310006 C2.74900902,10.3310006 0.0128908532,8.8824403 0.0127755574,7.09573467 L0.0127755574,4.93883309 L0.0505330085,4.93883309 C0.232114653,5.83751807 1.06404677,6.59249414 2.28318009,7.09573467 L2.2828342,7.09573467 C2.2862929,7.09573467 2.29003983,7.09873221 2.29349853,7.10011568 C2.35605355,7.12689856 2.4189891,7.15278381 2.48228579,7.17776345 C2.54987984,7.2041719 2.61781042,7.22971073 2.68606072,7.25437361 L2.69107583,7.25616061 C2.83065369,7.30615948 2.97148799,7.35257886 3.11344049,7.39537319 C3.12024259,7.39733312 3.1270447,7.39929303 3.1338468,7.40136826 C3.2757697,7.44352748 3.41869438,7.48223785 3.56249474,7.51746521 C3.56941214,7.51907928 3.57632954,7.52086628 3.58324694,7.52253798 C3.65395308,7.53966041 3.72486145,7.55593667 3.79595685,7.57136327 L3.82754629,7.57822301 C3.90687596,7.5952671 3.98641284,7.61133205 4.06613878,7.6264142 C4.14103681,7.64066548 4.21609547,7.65405921 4.29130001,7.66659274 C4.36920317,7.67942527 4.44723957,7.6914353 4.5253962,7.70262084 C4.53715579,7.7043502 4.54880007,7.70607954 4.56055964,7.7076936 C4.6348043,7.71802789 4.70915083,7.72761665 4.78358799,7.73645844 L4.82157603,7.74078181 C4.89858999,7.74977694 4.97570483,7.7578862 5.05290527,7.76510799 C5.05872739,7.76574207 5.06454953,7.76608794 5.07042933,7.76672203 C5.14679819,7.77376025 5.22323974,7.77998626 5.299741,7.78539901 L5.32804467,7.78747423 C5.40562599,7.79278422 5.48325841,7.79731919 5.56093032,7.80107844 L5.60514401,7.80309601 C5.68244591,7.80667001 5.76026661,7.80937933 5.83843318,7.81128161 C5.85128801,7.81162746 5.86425813,7.81185805 5.8771706,7.81208862 C5.95908408,7.81376032 6.04134345,7.81491322 6.12412162,7.81491322 C6.20701506,7.81491322 6.28927443,7.81376032 6.37113027,7.81208862 C6.38398511,7.81180041 6.39707051,7.81162748 6.40986769,7.81128161 C6.48797662,7.80932168 6.56568205,7.80667001 6.64309923,7.80309601 L6.68725526,7.80107844 C6.76530653,7.79715858 6.84306959,7.79283521 6.9201409,7.78747423 C7.00609166,7.78157495 7.09196948,7.77465707 7.17775625,7.76672203 C7.18357839,7.76608796 7.1895158,7.76574209 7.1953956,7.76510799 C7.35991985,7.74965725 7.52407643,7.7305143 7.68774123,7.7076936 C7.6995008,7.70607954 7.71126038,7.70435018 7.72301995,7.70262084 C7.79934188,7.69172595 7.87508736,7.68013931 7.95008346,7.66786094 C8.02759543,7.65504475 8.10494196,7.64124728 8.18210443,7.62647186 L8.20406717,7.62237906 C8.2770457,7.60831369 8.34915954,7.59355658 8.42081224,7.57822301 C8.50244229,7.56075479 8.58382563,7.54215289 8.66493866,7.52242268 C8.67191369,7.52080864 8.67894637,7.51902164 8.68586377,7.51734994 C8.82958549,7.4821558 8.97243321,7.44348388 9.11428114,7.40136826 C9.12108324,7.39935069 9.12800064,7.39739078 9.13480275,7.39531555 C9.20191415,7.3751583 9.26876842,7.35415464 9.33534957,7.33230959 C9.34301635,7.32977322 9.35056783,7.32740978 9.35811933,7.32481575 C9.42476055,7.3027292 9.49113392,7.2798425 9.55722504,7.25616061 L9.56218251,7.25437361 C9.63043414,7.22981685 9.69759052,7.20445307 9.76365165,7.17857048 C9.76440104,7.17822461 9.76509278,7.17787875 9.76589981,7.17764817 C9.82920534,7.15266294 9.89215974,7.12679705 9.9547447,7.10005804 C9.95837634,7.09850164 9.96189267,7.09567704 9.96552431,7.09567704 L9.96506314,7.09567704 C11.1840235,6.59237886 12.0160709,5.83746041 12.1976526,4.93877545 L12.23541,4.93877545 L12.23541,7.09567704 C12.23541,8.8824403 9.49940715,10.3310006 6.12412162,10.3310006 Z M4.7441012,6.40157402 C2.08292149,6.07645643 0.0866764149,4.83109464 0.0149660809,3.33261383 C0.0136402468,3.30488661 0.0128908532,3.27698644 0.0128908532,3.24914392 C0.0128908532,1.46226537 2.74900902,0.0137627426 6.12412162,0.0137627426 C9.49923419,0.0137627234 12.23541,1.46226535 12.23541,3.24914392 C12.23541,3.27698644 12.2347183,3.30488661 12.2333348,3.33261383 C12.1616821,4.83109464 10.1655523,6.07639879 7.50431497,6.40157402 C7.06085226,6.45581794 6.59888554,6.48446749 6.12412162,6.48446749 C5.66285934,6.48485121 5.20200102,6.45716891 4.7441012,6.40157402 Z" id="合并形状" fill-rule="nonzero"></path>
        </g>
    </g>
</svg>