<?xml version="1.0" encoding="UTF-8"?>
<svg class="icon" style="" viewBox="0 0 1024 1024" version="1.1" xmlns="http://www.w3.org/2000/svg" p-id="6098" xmlns:xlink="http://www.w3.org/1999/xlink" width="20" height="20"><path d="M895.625366 64.536976H192.306201c-35.306521 0-63.937561 28.625046-63.937561 63.943555V703.912585c0 35.319508 28.63104 63.943555 63.937561 63.943555H512V831.787707H352.156098c-17.659754 0-31.96878 14.31602-31.968781 31.968781 0 17.659754 14.309026 31.974775 31.968781 31.974774h383.625365c17.652761 0 31.96878-14.31502 31.968781-31.974774 0-17.652761-14.31602-31.96878-31.968781-31.968781H575.937561v-63.931567h319.687805c35.312515 0 63.937561-28.624047 63.937561-63.943555V128.480531c0-35.318509-28.625046-63.943555-63.937561-63.943555" fill="#70D0D0"></path><path d="M192.312195 128.480531h703.313171v511.500488H192.312195z" fill="#D7E6F7"></path></svg>