<?xml version="1.0" standalone="no"?><!DOCTYPE svg PUBLIC "-//W3C//DTD SVG 1.1//EN" "http://www.w3.org/Graphics/SVG/1.1/DTD/svg11.dtd"><svg t="1545728283116" class="icon" style="" viewBox="0 0 1024 1024" version="1.1" xmlns="http://www.w3.org/2000/svg" p-id="6098" xmlns:xlink="http://www.w3.org/1999/xlink" width="16" height="16"><defs><style type="text/css"></style></defs><path d="M512 0C230.4 0 0 230.4 0 512s230.4 512 512 512 512-230.4 512-512-230.4-512-512-512z m326.4 422.4l-313.6 313.6c-25.6 25.6-64 25.6-89.6 0L249.6 563.2c-25.6-25.6-25.6-64 0-89.6 25.6-25.6 64-25.6 89.6 0l134.4 134.4 268.8-268.8c25.6-25.6 64-25.6 89.6 0 25.6 19.2 25.6 57.6 6.4 83.2z" fill="#33B6C6" p-id="6099"></path><path d="M742.4 332.8L473.6 601.6 339.2 467.2c-25.6-25.6-64-25.6-89.6 0-25.6 25.6-25.6 64 0 89.6l179.2 179.2c25.6 25.6 64 25.6 89.6 0L832 422.4c25.6-25.6 25.6-64 0-89.6-19.2-25.6-64-25.6-89.6 0z" fill="#FFFFFF" p-id="6100"></path></svg>