<?xml version="1.0" standalone="no"?><!DOCTYPE svg PUBLIC "-//W3C//DTD SVG 1.1//EN" "http://www.w3.org/Graphics/SVG/1.1/DTD/svg11.dtd"><svg t="1547120806747" class="icon" style="" viewBox="0 0 1030 1024" version="1.1" xmlns="http://www.w3.org/2000/svg" p-id="18726" xmlns:xlink="http://www.w3.org/1999/xlink" width="201.171875" height="200"><defs><style type="text/css"></style></defs><path d="M736.6144 805.888a13.312 13.312 0 0 1-9.8304-4.1472l-50.1248-48.3328a14.7968 14.7968 0 0 1-0.5632-20.8896 13.6192 13.6192 0 0 1 20.1728-0.6144l39.168 38.1952 82.9952-99.0208c5.2224-5.9904 14.4384-7.168 20.1728-1.2288 5.7856 5.376 6.912 14.9504 1.1776 20.8896l-92.8256 111.0016a16.128 16.128 0 0 1-10.3424 5.376v-1.1776z" p-id="18727"></path><path d="M944.128 886.9376l76.0832 63.8976a28.8768 28.8768 0 1 1-37.12 44.1856l-79.7184-66.8672a224.8704 224.8704 0 0 1-139.776 48.7424c-127.488 0-230.912-107.008-230.912-239.104 0-131.9936 103.424-239.0528 230.912-239.0528 127.5392 0 230.912 107.008 230.912 239.104a243.3536 243.3536 0 0 1-50.3808 149.0944z m-180.48 42.1376c101.9904 0 184.7296-85.6576 184.7296-191.232 0-105.6256-82.7392-191.2832-184.7296-191.2832-102.0416 0-184.7296 85.6576-184.7296 191.2832 0 105.5744 82.688 191.232 184.7296 191.232z" p-id="18728"></path><path d="M559.4624 111.36v110.8992h112.2304V111.36h126.976c34.2016 0 56.9856 22.784 56.9856 56.9856V452.608a292.5568 292.5568 0 0 0-321.4336 456.3456H171.9808c-34.1504 0-56.9344-22.784-56.9344-56.9856V168.3456c0-34.2016 22.784-56.9856 56.9344-56.9856h114.5856v110.8992h119.296V111.36h153.6z m-373.1456 421.5808v39.8848c0 5.6832 7.8336 11.4176 15.6672 11.4176H483.84c7.7824 0 15.616-5.7344 15.616-11.4176v-39.8848c0-5.6832-7.8336-11.3664-15.616-11.3664H201.984c-7.8336 0-15.6672 5.632-15.6672 11.3664z m247.7056 222.208v-55.7056s0-6.9632-8.5504-6.9632H194.8672s-8.5504 0-8.5504 6.9632v48.7936s0 6.9632 8.5504 6.9632h239.104z m213.3504-341.2992V358.0928s0-6.9632-15.9232-6.9632H202.1888s-15.872 0-15.872 6.9632v48.7936s0 6.9632 15.872 6.9632h445.184z" p-id="18729"></path><path d="M371.4048 25.9072h-45.9264c-5.7344 0-8.8576 0-8.8576 5.6832v159.5392c0 5.6832 1.7408 5.6832 8.8576 5.6832h45.9264c5.6832 0 5.6832-5.6832 5.6832-5.6832V31.5904c0-3.7888-1.8944-5.6832-5.6832-5.6832z m222.208 0c-5.7344 0-5.7344 5.6832-5.7344 5.6832v159.5392c0 5.6832 5.7344 5.6832 5.7344 5.6832h44.6464c8.3456 0 8.3456-5.6832 8.3456-5.6832V31.5904c0-5.6832-2.6624-5.6832-8.3456-5.6832h-44.6464z" p-id="18730"></path></svg>