<?xml version="1.0" encoding="UTF-8"?>
<svg width="29px" height="34px" viewBox="0 0 29 34" version="1.1" xmlns="http://www.w3.org/2000/svg" xmlns:xlink="http://www.w3.org/1999/xlink">
    <!-- Generator: Sketch 59.1 (86144) - https://sketch.com -->
    <title>合并形状</title>
    <desc>Created with Sketch.</desc>
    <g id="组件" stroke="none" stroke-width="1" fill="none" fill-rule="evenodd">
        <g id="LOGO" fill="#1abfbf" fill-rule="nonzero">
            <g id="全彩LOGO">
                <path d="M22.2619755,23.352806 C22.9154081,20.8665063 25.0795686,12.6319848 25.687349,10.3192692 C25.7819088,9.95947381 25.6254658,9.5806285 25.304896,9.39311084 C23.3474373,8.2482095 16.6724387,4.34388307 14.9361567,3.32831425 C14.6793704,3.17806821 14.3618162,3.17781973 14.1047407,3.32765164 C12.3608575,4.34400731 5.63740171,8.26257978 3.66549672,9.41187089 C3.34294815,9.59984409 3.18614986,9.981257 3.28292393,10.3424604 C3.89421815,12.6243017 6.04102524,20.6377143 6.73944157,23.2447123 C8.51395186,20.8135192 10.8298856,17.6655281 12.5695997,15.2801632 C13.0198433,14.6627795 13.76901,14.3189281 14.5318504,14.3276663 C15.2883291,14.3362801 15.8312735,14.6398368 16.3091538,15.0852741 L8.6459112,25.5618538 C10.3458843,27.0658136 12.8720532,29.3007226 13.9737863,30.2754056 C14.2861766,30.5517871 14.75501,30.5516463 15.067235,30.2750743 C16.154749,29.3117903 18.63084,27.1184888 20.3280532,25.6151246 L17.8184345,22.1606285 L19.6344459,19.6980097 L22.2619755,23.352806 Z M13.6907265,0.233817296 C14.2039274,-0.0644384896 14.8372179,-0.0641071864 15.3501296,0.234604141 C17.852433,1.69188307 25.3263362,6.0446285 28.136651,7.68130816 C28.7777493,8.05464555 29.092453,8.81030694 28.9064729,9.52981486 C28.0057792,13.0144629 25.4426254,22.9308672 24.8343276,25.2842387 C24.7493105,25.6132229 24.5654373,25.9080414 24.3076182,26.1287308 C22.8611709,27.3670183 17.8324387,31.6719815 15.6012151,33.5820568 C14.9798632,34.1139932 14.0640085,34.1109949 13.4461268,33.5750041 C11.2231239,31.6466575 6.20769373,27.2960365 4.78334758,26.0604823 C4.53325356,25.8435201 4.35384188,25.556363 4.26824644,25.2361169 C3.64897251,22.9183605 1.0113688,13.0469306 0.0796880342,9.56004629 C-0.113591595,8.83664555 0.201099715,8.07323995 0.847382479,7.69766626 C3.67648946,6.05353228 11.1819373,1.69180024 13.6907265,0.233817296 Z M12.6813447,22.2781169 L21.4843732,10.1115834 C21.4843732,10.1115834 22.491359,10.1045847 23.450755,10.103383 C23.7664915,10.1029695 24.0548803,10.2829501 24.1939316,10.5671255 C24.3329416,10.8513009 24.2898134,11.1836809 24.1047009,11.4401096 C22.3556538,13.8625993 18.6912436,18.9703021 16.4209402,22.0832278 C15.9706966,22.70057 15.2215299,23.0444214 14.4586895,23.0357247 C13.7022108,23.0270694 13.1592664,22.7235128 12.6813447,22.2781169 Z M9.35609402,17.6653398 L4.89174644,11.4626797 C4.69502564,11.212173 4.65912678,10.8707649 4.79937607,10.5846431 C4.93966667,10.2985213 5.23123647,10.118458 5.5492037,10.1215244 C6.65397151,10.1322899 7.4929886,10.138419 7.4929886,10.138419 L11.1721054,15.2027211 L9.35609402,17.6653398 Z" id="合并形状"></path>
            </g>
        </g>
    </g>
</svg>