<?xml version="1.0" encoding="UTF-8"?>
<svg width="32px" height="32px" viewBox="0 0 32 32" version="1.1" xmlns="http://www.w3.org/2000/svg" xmlns:xlink="http://www.w3.org/1999/xlink">
    <!-- Generator: Sketch 52.4 (67378) - http://www.bohemiancoding.com/sketch -->
    <title>vdc</title>
    <desc>Created with Sketch.</desc>
    <g id="页面-1" stroke="none" stroke-width="1" fill="none" fill-rule="evenodd">
        <g id="vdc">
            <g id="数据库安全审计-copy-4">
                <g id="方形外框-copy-2">
                    <path d="M1.6,0 L30.4,0 C31.2836556,-1.623249e-16 32,0.7163444 32,1.6 L32,30.4 C32,31.2836556 31.2836556,32 30.4,32 L1.6,32 C0.7163444,32 1.082166e-16,31.2836556 0,30.4 L0,1.6 C-1.082166e-16,0.7163444 0.7163444,1.623249e-16 1.6,0 Z" id="Path" fill="#3880D4"></path>
                    <path d="M32,6.9078125 L32,30.4 C32,31.2836556 31.2836556,32 30.4,32 L1.6,32 C0.7163444,32 -4.61744561e-13,31.2836556 -4.61852778e-13,30.4 L-4.61852778e-13,22.73125 L32,6.9078125 Z" id="Path-Copy" fill="#3070CB"></path>
                </g>
            </g>
            <g id="分组-2-copy" transform="translate(2.400000, 2.400000)">
                <path d="M16.2034484,20.5885887 L20.240783,16.262873 C19.9398061,15.8259721 19.7635962,15.2964725 19.7635962,14.7258167 C19.7635962,13.2276613 20.9780911,12.0131663 22.4762466,12.0131663 C23.9744021,12.0131663 25.188897,13.2276613 25.188897,14.7258167 C25.188897,16.2239722 23.9744021,17.4384672 22.4762466,17.4384672 C22.0118408,17.4384672 21.5746921,17.3217654 21.192527,17.1160885 L16.7977588,21.2361837 C17.201281,21.8052544 17.4384672,22.5005731 17.4384672,23.2512896 C17.4384672,25.1774895 15.8769737,26.738983 13.9507738,26.738983 C12.0245738,26.738983 10.4630803,25.1774895 10.4630803,23.2512896 C10.4630803,22.4081701 10.7622488,21.634925 11.2602212,21.0319191 L5.50601991,15.9170735 C5.01032142,16.1473535 4.45778031,16.2759027 3.87521494,16.2759027 C1.73499282,16.2759027 0,14.5409099 0,12.4006878 C0,10.2604657 1.73499282,8.52547288 3.87521494,8.52547288 C4.75654604,8.52547288 5.56916059,8.81968336 6.22020149,9.31524728 L13.8568196,3.94133084 C13.6690902,3.57245477 13.5632522,3.1549125 13.5632522,2.71265046 C13.5632522,1.21449498 14.7777473,0 16.2759027,0 C17.7740582,0 18.9885532,1.21449498 18.9885532,2.71265046 C18.9885532,4.21080593 17.7740582,5.42530091 16.2759027,5.42530091 C15.6181491,5.42530091 15.0150734,5.19119712 14.545451,4.80176511 L7.4052305,10.7995504 C7.62694722,11.2875895 7.75042987,11.8297182 7.75042987,12.4006878 C7.75042987,13.1814538 7.51953103,13.9082904 7.12229292,14.5166382 L12.4139534,20.1195729 C12.8775946,19.8916204 13.3992333,19.7635962 13.9507738,19.7635962 C14.809497,19.7635962 15.5957354,20.0739406 16.2034484,20.5885887 Z" id="合并形状" fill="#43B83F"></path>
                <path d="M23.2769906,21.8811578 C23.3469545,21.9392945 23.412715,22.0044826 23.4732566,22.0766333 L25.5476084,24.5487496 C26.0931479,25.1988982 26.0083454,26.168195 25.3581968,26.7137344 C24.7080482,27.2592739 23.7387514,27.1744714 23.1932119,26.5243228 L21.1188601,24.0522065 C21.0890303,24.0166568 21.0610853,23.980153 21.0350142,23.9428164 C19.938017,24.7338815 18.7105757,25.3553226 17.3911194,25.7687108 C17.8862986,25.0931376 18.1872896,24.26631 18.211877,23.3704435 C20.5130621,22.2777418 22.3685858,20.3989654 23.4314848,18.0810776 C24.8932963,17.6657035 25.9639401,16.3207913 25.9639401,14.7258167 C25.9639401,13.4511058 25.28009,12.3361166 24.2592449,11.7277042 C23.7322526,8.63472344 21.8962634,5.98791691 19.3414596,4.37746722 C19.6106556,3.88272923 19.7635962,3.31555959 19.7635962,2.71265046 C19.7635962,2.59588495 19.7578576,2.4804592 19.7466472,2.36663988 C23.6849514,4.54623654 26.3514615,8.743346 26.3514615,13.5632522 C26.3514615,16.7393398 25.1936151,19.6449978 23.2769906,21.8811578 Z M9.71250664,23.7107146 C9.80717912,24.5941809 10.171761,25.3968862 10.7221634,26.0347417 C5.83040659,24.9250485 2.00360418,21.0111286 1.0210914,16.0723173 C1.6593199,16.5691545 2.4304962,16.9032348 3.27227805,17.0122161 C4.30514849,20.0953969 6.68479227,22.5611306 9.71250664,23.7107146 Z M4.38207912,7.77773509 C4.21560258,7.75968937 4.0464901,7.75042987 3.87521494,7.75042987 C3.19657214,7.75042987 2.55188284,7.89580202 1.97058847,8.15710488 C3.98260639,3.85001113 8.32430584,0.849425008 13.3746277,0.77640579 C13.0042058,1.33033779 12.7882093,1.99628026 12.7882093,2.71265046 C12.7882093,2.72174072 12.7882441,2.73082286 12.7883134,2.73989675 C9.24677376,2.98980678 6.1744713,4.93931056 4.38207912,7.77773509 Z" id="合并形状" fill="#00BD00" fill-rule="nonzero"></path>
                <g id="合并形状-copy-11" fill="#FFFFFE">
                    <path d="M16.2034484,20.5885887 L20.240783,16.262873 C19.9398061,15.8259721 19.7635962,15.2964725 19.7635962,14.7258167 C19.7635962,13.2276613 20.9780911,12.0131663 22.4762466,12.0131663 C23.9744021,12.0131663 25.188897,13.2276613 25.188897,14.7258167 C25.188897,16.2239722 23.9744021,17.4384672 22.4762466,17.4384672 C22.0118408,17.4384672 21.5746921,17.3217654 21.192527,17.1160885 L16.7977588,21.2361837 C17.201281,21.8052544 17.4384672,22.5005731 17.4384672,23.2512896 C17.4384672,25.1774895 15.8769737,26.738983 13.9507738,26.738983 C12.0245738,26.738983 10.4630803,25.1774895 10.4630803,23.2512896 C10.4630803,22.4081701 10.7622488,21.634925 11.2602212,21.0319191 L5.50601991,15.9170735 C5.01032142,16.1473535 4.45778031,16.2759027 3.87521494,16.2759027 C1.73499282,16.2759027 0,14.5409099 0,12.4006878 C0,10.2604657 1.73499282,8.52547288 3.87521494,8.52547288 C4.75654604,8.52547288 5.56916059,8.81968336 6.22020149,9.31524728 L13.8568196,3.94133084 C13.6690902,3.57245477 13.5632522,3.1549125 13.5632522,2.71265046 C13.5632522,1.21449498 14.7777473,0 16.2759027,0 C17.7740582,0 18.9885532,1.21449498 18.9885532,2.71265046 C18.9885532,4.21080593 17.7740582,5.42530091 16.2759027,5.42530091 C15.6181491,5.42530091 15.0150734,5.19119712 14.545451,4.80176511 L7.4052305,10.7995504 C7.62694722,11.2875895 7.75042987,11.8297182 7.75042987,12.4006878 C7.75042987,13.1814538 7.51953103,13.9082904 7.12229292,14.5166382 L12.4139534,20.1195729 C12.8775946,19.8916204 13.3992333,19.7635962 13.9507738,19.7635962 C14.809497,19.7635962 15.5957354,20.0739406 16.2034484,20.5885887 Z" id="path-1"></path>
                </g>
            </g>
        </g>
    </g>
</svg>