<?xml version="1.0" encoding="UTF-8"?>
<svg width="23px" height="24px" viewBox="0 0 23 24" version="1.1" xmlns="http://www.w3.org/2000/svg" xmlns:xlink="http://www.w3.org/1999/xlink">
    <!-- Generator: Sketch 59.1 (86144) - https://sketch.com -->
    <title>存储-iocn</title>
    <desc>Created with Sketch.</desc>
    <defs>
        <linearGradient x1="50%" y1="0%" x2="50%" y2="100%" id="linearGradient-1">
            <stop stop-color="#F3FFFF" stop-opacity="0.5" offset="0%"></stop>
            <stop stop-color="#FFFFFF" offset="100%"></stop>
        </linearGradient>
    </defs>
    <g id="P6日志审计中心" stroke="none" stroke-width="1" fill="none" fill-rule="evenodd">
        <g id="P6日志审计中心-1920适配04" transform="translate(-1209.000000, -134.000000)" fill="url(#linearGradient-1)">
            <g id="编组-5" transform="translate(415.000000, 116.000000)">
                <g id="编组-6" transform="translate(775.750000, 0.000000)">
                    <g id="存储-iocn">
                        <path d="M29.7559739,28.2843655 C31.9646526,28.2843655 34.0295257,28.0972081 35.9637708,27.7104365 C37.884934,27.3237563 39.4010355,26.7623452 40.5119159,26.0138985 L40.5119159,28.2843655 C40.5119159,28.8956345 40.0283307,29.4694416 39.0742422,29.9933909 C38.1071675,30.5173401 36.8132995,30.9414822 35.1535199,31.240934 C33.5067904,31.5527513 31.7033009,31.7025381 29.7690558,31.7025381 C27.8216969,31.7025381 26.0311617,31.5527513 24.3713822,31.240934 C22.7246526,30.9290863 21.4178303,30.5173401 20.4506599,29.9933909 C19.4835852,29.4694416 19.0130819,28.8956345 19.0130819,28.2843655 L19.0130819,26.0138985 C20.1239942,26.7623452 21.6399362,27.3237563 23.5610993,27.7104365 C25.4822625,28.0972081 27.5472632,28.2843655 29.7559739,28.2843655 Z M29.7559739,38.551401 C31.9646526,38.551401 34.0295257,38.3642741 35.9637708,37.9774721 C37.884934,37.5908223 39.4010355,37.0293807 40.5119159,36.280934 L40.5119159,38.551401 C40.5119159,39.1626701 40.0283307,39.7364772 39.0742422,40.2604264 C38.1071675,40.7844061 36.8132995,41.2085178 35.1535199,41.5079695 C33.5067904,41.8198173 31.7033009,41.9696041 29.7690558,41.9696041 C27.8216969,41.9696041 26.0311617,41.8198173 24.3713822,41.5079695 C22.7116983,41.1960305 21.4178303,40.7844061 20.4506599,40.2604264 C19.4835852,39.7364772 19.0130819,39.1626701 19.0130819,38.551401 L19.0130819,36.280934 C20.1239942,37.0293807 21.6399362,37.5908223 23.5610993,37.9774721 C25.4822625,38.3642741 27.5472632,38.551401 29.7559739,38.551401 Z M29.7559739,33.4115635 C31.9646526,33.4115635 34.0295257,33.2244365 35.9637708,32.8377563 C37.884934,32.4509848 39.4010355,31.8896954 40.5119159,31.1410964 L40.5119159,33.4115635 C40.5119159,34.0228629 40.0283307,34.5967614 39.0742422,35.1207107 C38.1202495,35.6446904 36.8132995,36.0563147 35.1535199,36.3682538 C33.5067904,36.6801015 31.7033009,36.8297665 29.7690558,36.8297665 C27.8216969,36.8297665 26.0311617,36.6801015 24.3713822,36.3682538 C22.7116983,36.0563147 21.4178303,35.6446904 20.4506599,35.1207107 C19.4835852,34.5967614 19.0130819,34.0228629 19.0130819,33.4115635 L19.0130819,31.1410964 C20.1239942,31.8896954 21.6399362,32.4509848 23.5610993,32.8377563 C25.4822625,33.2244365 27.5472632,33.4115635 29.7559739,33.4115635 Z M29.7559739,18.0172995 C31.7033009,18.0172995 33.4937085,18.1669645 35.1404061,18.4789036 C36.8002175,18.7907513 38.0940856,19.2023756 39.0611284,19.7263249 C40.0283307,20.2503959 40.4988339,20.824203 40.4988339,21.4354721 L40.4988339,23.1445279 C40.4988339,23.755797 40.0152487,24.3297259 39.0611284,24.8536751 C38.1071675,25.3776244 36.8002175,25.7892792 35.1404061,26.1012183 C33.4806265,26.4130355 31.690219,26.5627005 29.7559739,26.5627005 C27.8086149,26.5627005 26.0182074,26.4130355 24.3584278,26.1012183 C22.6986164,25.7892792 21.4047484,25.3776244 20.437578,24.8536751 C19.4705033,24.3297259 19,23.755797 19,23.1445279 L19,21.4354721 C19,20.824203 19.4835852,20.2503959 20.437578,19.7263249 C21.4047484,19.2023756 22.6986164,18.7782335 24.3584278,18.4789036 C26.0182074,18.1669645 27.8216969,18.0172995 29.7559739,18.0172995 Z"></path>
                    </g>
                </g>
            </g>
        </g>
    </g>
</svg>