<?xml version="1.0" encoding="UTF-8"?>
<svg width="14px" height="14px" viewBox="0 0 14 14" version="1.1" xmlns="http://www.w3.org/2000/svg" xmlns:xlink="http://www.w3.org/1999/xlink">
    <!-- Generator: Sketch 56.3 (81716) - https://sketch.com -->
    <title>icon-预警</title>
    <desc>Created with Sketch.</desc>
    <g id="P1.1超级管理员首页" stroke="none" stroke-width="1" fill="none" fill-rule="evenodd">
        <g transform="translate(-1095.000000, -1277.000000)" fill-rule="nonzero" id="审计中心">
            <g transform="translate(42.000000, 1167.000000)">
                <g id="审计中心内容" transform="translate(66.000000, 66.000000)">
                    <g id="综合日志审计" transform="translate(778.000000, 21.000000)">
                        <g id="磁盘预警" transform="translate(208.000000, 21.000000)">
                            <g id="icon-预警" transform="translate(1.000000, 2.000000)">
                                <path d="M7,0 C3.13379883,0 0,3.13379883 0,7 C0,10.8662148 3.13379883,14 7,14 C8.26488086,14 9.45136719,13.6645742 10.475377,13.0778047 C12.5813105,11.871084 14,9.60132031 14,7 C14,3.13379883 10.8662148,0 7,0 L7,0 Z" id="形状" fill="#FF9900"></path>
                                <path d="M7.875,7.62302734 C7.875,7.89941797 7.65235352,8.12109652 7.37694727,8.12109652 L6.62305273,8.12109652 C6.49082374,8.12153517 6.36388337,8.06920179 6.27038411,7.97569996 C6.17688485,7.88219814 6.12455495,7.75525633 6.12499718,7.62302734 L6.12499718,3.62304688 C6.12499718,3.34668359 6.34668945,3.1171875 6.62305273,3.1171875 L7.37694727,3.1171875 C7.65235352,3.1171875 7.875,3.34668359 7.875,3.62304688 L7.875,7.62302734 Z M7.875,10.3769531 C7.875,10.6533301 7.65235352,10.8828125 7.37694727,10.8828125 L6.62305273,10.8828125 C6.34668945,10.8828125 6.125,10.6533301 6.125,10.3769531 L6.125,9.62304492 C6.125,9.34666797 6.34668945,9.11914062 6.62305273,9.11914062 L7.37694727,9.11914062 C7.65235352,9.11914062 7.875,9.34666797 7.875,9.62304492 L7.875,10.3769531 Z" id="形状结合" fill="#FFFFFF"></path>
                            </g>
                        </g>
                    </g>
                </g>
            </g>
        </g>
    </g>
</svg>