<?xml version="1.0" encoding="UTF-8"?>
<svg width="25px" height="24px" viewBox="0 0 25 24" version="1.1" xmlns="http://www.w3.org/2000/svg" xmlns:xlink="http://www.w3.org/1999/xlink">
    <!-- Generator: Sketch 59.1 (86144) - https://sketch.com -->
    <title>接入资产-iocn</title>
    <desc>Created with Sketch.</desc>
    <defs>
        <linearGradient x1="50%" y1="0%" x2="50%" y2="100%" id="linearGradient-1">
            <stop stop-color="#F3FFFF" stop-opacity="0.5" offset="0%"></stop>
            <stop stop-color="#FFFFFF" offset="100%"></stop>
        </linearGradient>
    </defs>
    <g id="P6日志审计中心" stroke="none" stroke-width="1" fill="none" fill-rule="evenodd">
        <g id="P6日志审计中心-1920适配04" transform="translate(-745.000000, -134.000000)" fill="url(#linearGradient-1)">
            <g id="编组-5" transform="translate(415.000000, 116.000000)">
                <g id="日志总数备份" transform="translate(312.250000, 0.000000)">
                    <g id="接入资产-iocn">
                        <path d="M40.264039,36.862361 C41.2098732,36.862361 41.9765561,37.6290439 41.9765561,38.5749073 L41.9765561,40.2874244 C41.9765561,40.7416683 41.7961463,41.1772683 41.4749854,41.4984 C41.1538537,41.819561 40.7182537,41.9999707 40.264039,41.9999707 L19.7125463,41.9999707 C18.7666829,41.9999707 18,41.2332878 18,40.2874244 L18,38.5749073 C18,37.6290439 18.7666829,36.862361 19.7125463,36.862361 L40.264039,36.862361 Z M40.264039,30.0117659 C41.2098732,30.0117659 41.9765561,30.7784488 41.9765561,31.7242829 L41.9765561,33.4368293 C41.9765561,34.3826634 41.2098732,35.1493756 40.264039,35.1493756 L19.7125463,35.1493756 C18.7666829,35.1493756 18,34.3826634 18,33.4368293 L18,31.7242829 C18,31.2700683 18.1804098,30.8344683 18.5015707,30.5133073 C18.8227024,30.1921756 19.2583024,30.0117659 19.7125463,30.0117659 L40.264039,30.0117659 Z M41.9761171,23.1610244 L41.9765562,23.1610244 L41.9765562,26.8094927 L41.9614829,26.8094927 C41.8496488,27.6616098 41.1234439,28.2988683 40.264039,28.2991024 L19.7125463,28.2991024 C18.8531122,28.2988683 18.1269073,27.6616098 18.0151024,26.8094927 L18,26.8094927 L18,23.1610244 C18,22.5994537 18.2774634,22.059922 18.7627902,21.7362439 L23.899961,18.3111805 C24.1815512,18.1234537 24.5123122,18.0232976 24.8505951,18.0234145 L35.1264,18.0234145 C35.4647122,18.0234145 35.795122,18.1233366 36.0765951,18.3111805 L41.2142049,21.7362439 C41.6906341,22.0539805 41.9765562,22.5888 41.9765562,23.1614927 L41.9761171,23.1610244 Z M35.9823805,40.2607903 C36.288439,40.2609073 36.5713171,40.0976488 36.7242732,39.8326244 C36.8773756,39.5676293 36.8773756,39.2410829 36.7242732,38.9759707 C36.5713171,38.7109463 36.288439,38.5478049 35.9823805,38.5478049 C35.5094049,38.547922 35.126078,38.9313659 35.126078,39.4043707 C35.126078,39.8773463 35.5094049,40.2606732 35.9823805,40.2607903 Z M39.4079415,40.2607903 C39.714,40.2609073 39.9968488,40.0976488 40.1498049,39.8326244 C40.3029073,39.5676293 40.3029073,39.2410829 40.1498049,38.9759707 C39.9968488,38.7109463 39.714,38.5478049 39.4079415,38.5478049 C38.9350537,38.547922 38.5516098,38.9313659 38.5516098,39.4043707 C38.5516098,39.8773463 38.9350537,40.2606732 39.4079415,40.2607903 Z M35.9823805,26.5594537 C36.2930341,26.5665659 36.5830829,26.4050049 36.7404,26.1371415 C36.8978341,25.8692488 36.8978341,25.5372585 36.7404,25.2693659 C36.5830829,25.0015024 36.2930341,24.8399415 35.9823805,24.8469366 C35.5170732,24.857561 35.1453951,25.2378146 35.1453951,25.7032683 C35.1453951,26.1686927 35.5170732,26.5489463 35.9823805,26.5594537 Z M39.4075902,26.5594537 C39.7180976,26.5665659 40.0081463,26.4050049 40.1654634,26.1371415 C40.3228976,25.8692488 40.3228976,25.5372585 40.1654634,25.2693659 C40.0081463,25.0015024 39.7180976,24.8399415 39.4075902,24.8469366 C38.9422537,24.857561 38.5705756,25.2378146 38.5705756,25.7032683 C38.5705756,26.1686927 38.9422537,26.5489463 39.4075902,26.5594537 Z M35.9823805,33.4101951 C36.2930341,33.417278 36.5830829,33.2556293 36.7404,32.9877366 C36.8978341,32.7198732 36.8978341,32.3878537 36.7404,32.1199902 C36.5830829,31.8522146 36.2930341,31.6905659 35.9823805,31.6976488 C35.5170732,31.7081561 35.1453951,32.088439 35.1453951,32.5538634 C35.1453951,33.0192878 35.5170732,33.3995707 35.9823805,33.4101951 Z M39.4075902,33.4101951 C39.7180976,33.417278 40.0081463,33.2556293 40.1654634,32.9877366 C40.3228976,32.7198732 40.3228976,32.3878537 40.1654634,32.1199902 C40.0081463,31.8522146 39.7180976,31.6905659 39.4075902,31.6976488 C38.9422537,31.7081561 38.5705756,32.088439 38.5705756,32.5538634 C38.5705756,33.0192878 38.9422537,33.3995707 39.4075902,33.4101951 Z"></path>
                    </g>
                </g>
            </g>
        </g>
    </g>
</svg>